<svg width="20" height="20" viewBox="0 0 20 20" fill="none" xmlns="http://www.w3.org/2000/svg">
<path fill-rule="evenodd" clip-rule="evenodd" d="M18.3334 10.0001C18.3334 14.6024 14.6024 18.3334 10.0001 18.3334C8.667 18.3334 7.40706 18.0204 6.28969 17.4638C5.99276 17.316 5.65336 17.2667 5.33291 17.3525L3.47787 17.8488C2.67259 18.0642 1.93587 17.3276 2.15134 16.5223L2.64768 14.6672C2.73342 14.3468 2.6842 14.0074 2.5363 13.7105C1.97976 12.5931 1.66675 11.3332 1.66675 10.0001C1.66675 5.39771 5.39771 1.66675 10.0001 1.66675C14.6024 1.66675 18.3334 5.39771 18.3334 10.0001ZM6.25008 9.25708C6.25008 10.3974 7.34911 11.5939 8.35725 12.4515C9.04375 13.0356 9.38708 13.3277 10.0001 13.3277C10.6131 13.3277 10.9564 13.0356 11.6429 12.4515C12.6511 11.5939 13.7501 10.3974 13.7501 9.25708C13.7501 7.02611 11.6875 6.19318 10.0001 7.91658C8.31264 6.19318 6.25008 7.02611 6.25008 9.25708Z" fill="#283E50"/>
</svg>
