<svg width="20" height="18" viewBox="0 0 20 18" fill="none" xmlns="http://www.w3.org/2000/svg">
<path fill-rule="evenodd" clip-rule="evenodd" d="M20 1.76923C20 0.987195 18.9591 0.709028 18.2705 0.525002C18.2072 0.508097 18.1469 0.491979 18.0906 0.476348C17.2306 0.237236 16.0093 0 14.5455 0C12.9784 0 11.6863 0.507769 10.799 1.00117C10.6633 1.07664 10.5205 1.18089 10.3915 1.27511C10.2212 1.39959 10.0748 1.50657 10 1.50657C9.92518 1.50657 9.77882 1.39959 9.60845 1.27511C9.47945 1.18089 9.33673 1.07664 9.201 1.00117C8.31373 0.507769 7.02162 0 5.45455 0C3.99071 0 2.76936 0.237236 1.90935 0.476348C1.85526 0.491377 1.79732 0.506902 1.73651 0.523197C1.05091 0.706905 0 0.988487 0 1.76923V13.2692C0 13.5758 0.163136 13.8605 0.431155 14.0218C0.857536 14.2781 1.42022 14.0537 1.91885 13.8548C2.09281 13.7854 2.25897 13.7191 2.40884 13.6775C3.13973 13.4743 4.19111 13.2692 5.45455 13.2692C6.60118 13.2692 7.45958 13.6373 8.10309 14.0227C8.26836 14.1216 8.43545 14.2479 8.60691 14.3774C9.03073 14.6977 9.48164 15.0385 10 15.0385C10.5198 15.0385 10.9685 14.6989 11.3915 14.3788C11.5632 14.2489 11.7306 14.1222 11.8969 14.0227C12.5405 13.6373 13.3988 13.2692 14.5455 13.2692C15.8089 13.2692 16.8603 13.4743 17.5912 13.6775C17.7479 13.7211 17.9181 13.791 18.0947 13.8636C18.5857 14.0654 19.1266 14.2877 19.5688 14.0218C19.8368 13.8605 20 13.5758 20 13.2692V1.76923ZM2.12047 2.26239C1.93785 2.31912 1.81818 2.48646 1.81818 2.67301V11.4107C1.81818 11.7061 2.1099 11.9187 2.40497 11.8495C3.21434 11.6599 4.25252 11.5 5.45455 11.5C7.05735 11.5 8.254 12.0302 9.09091 12.5369V3.05694C8.90809 2.91563 8.63973 2.72678 8.299 2.53729C7.59539 2.14608 6.61475 1.76923 5.45455 1.76923C4.01372 1.76923 2.84535 2.03724 2.12047 2.26239ZM14.5455 11.5C12.9426 11.5 11.746 12.0302 10.9091 12.5369V3.05694C11.0919 2.91563 11.3603 2.72678 11.701 2.53729C12.4046 2.14608 13.3853 1.76923 14.5455 1.76923C15.9863 1.76923 17.1546 2.03724 17.8795 2.26239C18.0622 2.31912 18.1818 2.48646 18.1818 2.67301V11.4107C18.1818 11.7061 17.8901 11.9187 17.595 11.8495C16.7856 11.6599 15.7475 11.5 14.5455 11.5Z" fill="#283E50"/>
<path d="M0.988567 16.2848C0.783349 15.839 0.988458 15.3156 1.44668 15.1159C1.87235 14.9318 2.31303 14.7771 2.75625 14.6386C3.49159 14.4091 4.50835 14.1541 5.45461 14.1541C6.51542 14.1541 7.42084 14.7104 8.07706 15.1136C8.11074 15.1343 8.14377 15.1546 8.17612 15.1744C8.9407 15.6421 9.45498 15.9233 10.0001 15.9233C10.5445 15.9233 11.0557 15.6428 11.8193 15.1747C11.8507 15.1555 11.8826 15.1359 11.9152 15.1158C12.572 14.7116 13.478 14.1541 14.5455 14.1541C15.4969 14.1541 16.5134 14.4089 17.2484 14.6388C17.9084 14.8453 18.3981 15.0495 18.5239 15.1032C18.9839 15.3012 19.2222 15.8298 19.0108 16.2864C18.8062 16.7288 18.26 16.9251 17.8068 16.7291C17.444 16.5734 17.0692 16.4412 16.6919 16.3231C16.013 16.1107 15.2113 15.9233 14.5455 15.9233C14.0372 15.9233 13.5489 16.2051 12.7336 16.7054C12.0578 17.1201 11.1249 17.6925 10.0001 17.6925C8.87452 17.6925 7.93858 17.1194 7.26084 16.7043C6.44392 16.204 5.95666 15.9233 5.45461 15.9233C4.79441 15.9233 3.99299 16.1106 3.31177 16.3233C2.93223 16.4418 2.55438 16.5736 2.18961 16.7308C1.73143 16.9302 1.19375 16.7307 0.988567 16.2848Z" fill="#283E50"/>
</svg>
