<svg width="22" height="22" viewBox="0 0 22 22" fill="none" xmlns="http://www.w3.org/2000/svg">
<path d="M13 2.95122C13 4.02885 12.1046 4.90244 11 4.90244C9.8954 4.90244 9 4.02885 9 2.95122C9 1.87359 9.8954 1 11 1C12.1046 1 13 1.87359 13 2.95122Z" stroke="#283E50" stroke-width="2"/>
<mask id="path-2-inside-1_878_32" fill="white">
<path d="M11 13.6826L11.6512 13.3196C11.5177 13.0917 11.2691 12.9509 11 12.9509C10.7309 12.9509 10.4823 13.0917 10.3488 13.3196L11 13.6826ZM9.3454 8.14345C9.7573 8.1859 10.1265 7.89453 10.17 7.49266C10.2135 7.09078 9.9149 6.73059 9.503 6.68813L9.3454 8.14345ZM12.497 6.68813C12.0851 6.73059 11.7865 7.09078 11.83 7.49266C11.8735 7.89453 12.2427 8.1859 12.6546 8.14345L12.497 6.68813ZM4.81062 10.3273L6.98592 11.0347L7.46026 9.64641L5.28497 8.939L4.81062 10.3273ZM7.31681 11.7188L6.07002 14.8813L7.47004 15.4067L8.71683 12.2441L7.31681 11.7188ZM16.715 8.939L14.5397 9.64641L15.0141 11.0347L17.1894 10.3273L16.715 8.939ZM13.2832 12.2441L14.53 15.4067L15.93 14.8813L14.6832 11.7188L13.2832 12.2441ZM10.0754 16.7361L11.6512 14.0456L10.3488 13.3196L8.77299 16.01L10.0754 16.7361ZM15.9894 6.03758L14.0918 6.43429L14.4061 7.86522L16.3037 7.46852L15.9894 6.03758ZM7.90817 6.4343L6.0106 6.03758L5.69631 7.46852L7.59387 7.86522L7.90817 6.4343ZM10.3488 14.0456L11.9246 16.7361L13.227 16.01L11.6512 13.3196L10.3488 14.0456ZM14.0918 6.43429C13.9853 6.45656 13.9356 6.46696 13.8865 6.47686L14.1903 7.90994C14.2458 7.89873 14.3016 7.88708 14.4061 7.86522L14.0918 6.43429ZM7.59387 7.86522C7.6984 7.88708 7.75416 7.89873 7.80969 7.90994L8.11353 6.47686C8.06443 6.46696 8.01468 6.45656 7.90817 6.4343L7.59387 7.86522ZM8.14506 17.8289C8.94287 17.8289 9.6795 17.4119 10.0754 16.7361L8.77299 16.01C8.64422 16.2299 8.40459 16.3655 8.14506 16.3655V17.8289ZM14.53 15.4067C14.7122 15.8689 14.3625 16.3655 13.8549 16.3655V17.8289C15.4152 17.8289 16.4901 16.302 15.93 14.8813L14.53 15.4067ZM14.5397 9.64641C14.3178 9.71861 14.0816 9.79022 13.8898 9.90563L14.6777 11.151C14.6688 11.1563 14.6763 11.1499 14.7342 11.1286C14.795 11.1061 14.877 11.0793 15.0141 11.0347L14.5397 9.64641ZM14.6832 11.7188C14.6313 11.5872 14.6004 11.5084 14.5795 11.4483C14.5596 11.3912 14.5599 11.3815 14.5613 11.3916L13.0751 11.5898C13.1057 11.8077 13.1992 12.0311 13.2832 12.2441L14.6832 11.7188ZM13.8898 9.90563C13.3007 10.2605 12.9814 10.9207 13.0751 11.5898L14.5613 11.3916C14.5479 11.296 14.5935 11.2016 14.6777 11.151L13.8898 9.90563ZM17.25 8.21486C17.25 8.54341 17.0345 8.8351 16.715 8.939L17.1894 10.3273C18.1214 10.0243 18.75 9.17334 18.75 8.21486H17.25ZM6.07002 14.8813C5.50994 16.302 6.58484 17.8289 8.14506 17.8289V16.3655C7.63751 16.3655 7.28784 15.8689 7.47004 15.4067L6.07002 14.8813ZM6.98592 11.0347C7.12301 11.0793 7.20501 11.1061 7.26583 11.1286C7.32371 11.1499 7.33115 11.1563 7.3223 11.151L8.1102 9.90563C7.91842 9.79022 7.68219 9.71861 7.46026 9.64641L6.98592 11.0347ZM8.71683 12.2441C8.80081 12.0311 8.89432 11.8077 8.92485 11.5898L7.43868 11.3916C7.44009 11.3815 7.4404 11.3911 7.42051 11.4483C7.3996 11.5084 7.36869 11.5872 7.31681 11.7188L8.71683 12.2441ZM7.3223 11.151C7.40646 11.2016 7.45208 11.296 7.43868 11.3916L8.92485 11.5898C9.0186 10.9207 8.69929 10.2605 8.1102 9.90563L7.3223 11.151ZM3.25 8.21486C3.25 9.17334 3.87863 10.0243 4.81062 10.3273L5.28497 8.939C4.96549 8.8351 4.75 8.54341 4.75 8.21486H3.25ZM4.75 8.21486C4.75 7.72892 5.20927 7.3667 5.69631 7.46852L6.0106 6.03758C4.58979 5.74056 3.25 6.79724 3.25 8.21486H4.75ZM11.9246 16.7361C12.3205 17.4119 13.0571 17.8289 13.8549 17.8289V16.3655C13.5954 16.3655 13.3558 16.2299 13.227 16.01L11.9246 16.7361ZM18.75 8.21486C18.75 6.79724 17.4102 5.74055 15.9894 6.03758L16.3037 7.46852C16.7907 7.3667 17.25 7.72892 17.25 8.21486H18.75ZM9.503 6.68813C9.0374 6.64015 8.57371 6.56973 8.11353 6.47686L7.80969 7.90994C8.31831 8.01258 8.83084 8.09041 9.3454 8.14345L9.503 6.68813ZM13.8865 6.47686C13.4263 6.56973 12.9626 6.64015 12.497 6.68813L12.6546 8.14345C13.1692 8.09041 13.6817 8.01258 14.1903 7.90994L13.8865 6.47686Z"/>
</mask>
<path d="M7.47004 15.4067L7.11877 16.343L7.82137 14.4705L7.47004 15.4067ZM14.53 15.4067L14.1787 14.4705L14.8813 16.343L14.53 15.4067ZM15.9894 6.03758L16.9661 5.82305L15.0127 6.25205L15.9894 6.03758ZM14.4061 7.86522L13.4294 8.07975L15.3828 7.65075L14.4061 7.86522ZM14.6777 11.151L13.8327 11.6857L15.5228 10.6163L14.6777 11.151ZM7.3223 11.151L6.47723 10.6163L8.16736 11.6857L7.3223 11.151ZM5.99408 9.95648L6.23126 9.26233L4.33868 8.61567L4.1015 9.30981L5.99408 9.95648ZM6.2768 10.0172L6.03963 10.7114L7.93221 11.358L8.16938 10.6639L6.2768 10.0172ZM8.3681 11.0452L7.66809 10.7825L6.96553 12.6551L7.66555 12.9177L8.3681 11.0452ZM6.41875 16.0803L7.11877 16.343L7.82132 14.4704L7.12131 14.2078L6.41875 16.0803ZM17.8985 9.30979L17.6613 8.61564L15.7687 9.26235L16.0059 9.9565L17.8985 9.30979ZM13.8306 10.6639L14.0678 11.3581L15.9604 10.7113L15.7232 10.0172L13.8306 10.6639ZM14.3345 12.9177L15.0345 12.6551L14.3319 10.7825L13.6319 11.0452L14.3345 12.9177ZM14.8787 14.2078L14.1787 14.4704L14.8813 16.343L15.5813 16.0803L14.8787 14.2078ZM8.93728 17.2465L9.58848 17.6095L10.5623 15.8626L9.91112 15.4996L8.93728 17.2465ZM17.1232 6.53858L16.9661 5.82312L15.0127 6.25205L15.1698 6.96751L17.1232 6.53858ZM13.2723 7.36423L13.4294 8.07969L15.3828 7.65075L15.2257 6.93529L13.2723 7.36423ZM8.72774 7.36429L8.88489 6.64883L6.93145 6.21976L6.7743 6.93523L8.72774 7.36429ZM4.87673 6.53854L4.71959 7.254L6.67303 7.68304L6.83017 6.96758L4.87673 6.53854ZM12.0889 15.4996L11.4377 15.8626L12.4115 17.6095L13.0627 17.2465L12.0889 15.4996ZM15.0167 6.98602L14.8648 6.26948L12.9082 6.68424L13.0601 7.40078L15.0167 6.98602ZM6.98336 6.98599L6.83144 7.70254L8.78795 8.11735L8.93987 7.4008L6.98336 6.98599ZM13.4387 11.0631L13.8327 11.6857L15.5227 10.6163L15.1287 9.99364L13.4387 11.0631ZM13.9504 12.4819L14.6935 12.3828L14.4291 10.4004L13.686 10.4995L13.9504 12.4819ZM6.8712 9.99368L6.47725 10.6163L8.16736 11.6857L8.56131 11.063L6.8712 9.99368ZM8.04955 12.4819L8.79263 12.581L9.05707 10.5986L8.31399 10.4995L8.04955 12.4819ZM8.50881 6.58047L8.35121 8.03578L10.3396 8.25111L10.4972 6.79579L8.50881 6.58047ZM13.6488 8.03578L13.4912 6.58047L11.5028 6.79579L11.6604 8.25111L13.6488 8.03578ZM7.93221 11.358L8.40655 9.96973L6.51397 9.32309L6.03963 10.7114L7.93221 11.358ZM4.33868 8.61567L3.86433 10.004L5.75691 10.6506L6.23126 9.26232L4.33868 8.61567ZM5.71869 15.8176L7.11871 16.343L7.82137 14.4705L6.42135 13.9451L5.71869 15.8176ZM9.06811 11.3078L7.66809 10.7825L6.96553 12.6551L8.36555 13.1803L9.06811 11.3078ZM13.5934 9.96977L14.0678 11.3581L15.9604 10.7113L15.486 9.32306L13.5934 9.96977ZM18.1357 10.0039L17.6613 8.61564L15.7687 9.26235L16.2431 10.6506L18.1357 10.0039ZM14.8813 16.343L16.2813 15.8176L15.5787 13.9451L14.1787 14.4705L14.8813 16.343ZM14.3319 10.7825L12.9319 11.3078L13.6345 13.1803L15.0345 12.6551L14.3319 10.7825ZM8.28607 16.8835L9.58848 17.6095L10.5623 15.8626L9.25991 15.1366L8.28607 16.8835ZM13.1151 6.64882L13.4294 8.07975L15.3828 7.65069L15.0685 6.21975L13.1151 6.64882ZM17.2804 7.25399L16.9661 5.82305L15.0127 6.25211L15.327 7.68305L17.2804 7.25399ZM5.03388 5.82306L4.71959 7.25399L6.67303 7.68305L6.98732 6.25211L5.03388 5.82306ZM8.57059 8.07976L8.88489 6.64883L6.93145 6.21976L6.61715 7.65069L8.57059 8.07976ZM12.4115 17.6095L13.7139 16.8835L12.7401 15.1366L11.4377 15.8626L12.4115 17.6095ZM12.9082 6.68424L13.212 8.11733L15.1686 7.70256L14.8648 6.26948L12.9082 6.68424ZM8.78795 8.11735L9.09179 6.68427L7.13528 6.26945L6.83144 7.70254L8.78795 8.11735ZM7.14506 16.3655V17.8289H9.14506V16.3655H7.14506ZM12.8549 16.3655V17.8289H14.8549V16.3655H12.8549ZM13.0447 10.4403L13.8326 11.6856L15.5228 10.6163L14.7349 9.37098L13.0447 10.4403ZM14.4291 10.4004L12.9429 10.5986L13.2073 12.581L14.6935 12.3828L14.4291 10.4004ZM18.75 7.21486H17.25V9.21486H18.75V7.21486ZM8.16737 11.6856L8.95527 10.4403L7.26513 9.37098L6.47723 10.6163L8.16737 11.6856ZM9.05707 10.5986L7.5709 10.4004L7.30646 12.3828L8.79263 12.581L9.05707 10.5986ZM4.75 7.21486H3.25V9.21486H4.75V7.21486ZM5.28497 8.939L4.66641 10.8409L4.66645 10.841L5.28497 8.939ZM6.98592 11.0347L7.60448 9.13276L7.60444 9.13275L6.98592 11.0347ZM7.31681 11.7188L9.17744 12.4523L9.17746 12.4523L7.31681 11.7188ZM7.47004 15.4067L9.33066 16.1402L9.33068 16.1402L7.47004 15.4067ZM16.715 8.939L16.0965 7.03704L16.0965 7.03704L16.715 8.939ZM15.0141 11.0347L14.3956 9.13275L14.3956 9.13275L15.0141 11.0347ZM14.6832 11.7188L16.5438 10.9853L16.5438 10.9851L14.6832 11.7188ZM14.53 15.4067L12.6694 16.1402L12.6694 16.1402L14.53 15.4067ZM10.0754 16.7361L11.8011 17.747L11.8012 17.7469L10.0754 16.7361ZM11 13.6826L10.0262 15.4295L11 15.9724L11.9738 15.4295L11 13.6826ZM11.6512 13.3196L13.377 12.3088L13.3769 12.3087L11.6512 13.3196ZM10.3488 13.3196L8.62308 12.3087L8.62303 12.3088L10.3488 13.3196ZM15.9894 6.03758L16.3987 7.99526L16.3987 7.99526L15.9894 6.03758ZM14.4061 7.86522L13.9968 5.90754L13.9967 5.90757L14.4061 7.86522ZM7.90817 6.4343L7.49889 8.39197L7.49896 8.39198L7.90817 6.4343ZM5.69631 7.46852L5.28702 9.42619L5.28704 9.4262L5.69631 7.46852ZM11.9246 16.7361L10.1988 17.7469L10.1989 17.747L11.9246 16.7361ZM13.8865 6.47686L13.4911 4.51634L13.4909 4.51638L13.8865 6.47686ZM7.80969 7.90994L7.41394 9.8704L7.41409 9.87043L7.80969 7.90994ZM14.6777 11.151L15.7084 12.865L13.6589 9.42993L14.6777 11.151ZM14.5613 11.3916L12.5807 11.6692L16.5422 11.1156L14.5613 11.3916ZM7.3223 11.151L8.34533 9.43245L6.29124 12.8647L7.3223 11.151ZM8.92485 11.5898L10.9055 11.8674L10.9055 11.8673L8.92485 11.5898ZM9.3454 8.14345L9.55047 6.15399L9.55045 6.15399L9.3454 8.14345ZM9.503 6.68813L9.70807 4.69867L9.70802 4.69867L9.503 6.68813ZM12.497 6.68813L12.292 4.69867L12.2919 4.69867L12.497 6.68813ZM12.6546 8.14345L12.4496 6.15398L12.4495 6.15399L12.6546 8.14345ZM4.81062 10.3273L5.42914 8.42534L5.42903 8.4253L4.81062 10.3273ZM7.46026 9.64641L8.07896 7.74452L8.07879 7.74446L7.46026 9.64641ZM6.07002 14.8813L4.20939 14.1478L4.20939 14.1478L6.07002 14.8813ZM8.71683 12.2441L6.85625 11.5104L6.8562 11.5106L8.71683 12.2441ZM14.5397 9.64641L13.9212 7.74446L13.9209 7.74454L14.5397 9.64641ZM17.1894 10.3273L16.571 8.4253L16.5709 8.42534L17.1894 10.3273ZM13.2832 12.2441L15.1438 11.5106L15.1437 11.5103L13.2832 12.2441ZM15.93 14.8813L14.0694 15.6149L14.0694 15.6149L15.93 14.8813ZM11.6512 14.0456L13.377 15.0564L14.4095 13.2935L12.625 12.2987L11.6512 14.0456ZM8.77299 16.01L7.04722 14.9992L7.04712 14.9994L8.77299 16.01ZM14.0918 6.43429L13.6825 4.47661L13.6824 4.47664L14.0918 6.43429ZM16.3037 7.46852L16.713 9.4262L16.713 9.42619L16.3037 7.46852ZM6.0106 6.03758L6.41988 4.07991L6.41986 4.0799L6.0106 6.03758ZM7.59387 7.86522L8.00315 5.90755L8.00314 5.90754L7.59387 7.86522ZM10.3488 14.0456L9.37496 12.2987L7.59049 13.2935L8.62303 15.0564L10.3488 14.0456ZM13.227 16.01L11.5012 17.0208L11.5012 17.0208L13.227 16.01ZM14.1903 7.90994L14.5859 9.87042L14.5863 9.87036L14.1903 7.90994ZM8.11353 6.47686L8.50917 4.51638L8.50893 4.51634L8.11353 6.47686ZM13.8898 9.90563L12.8586 8.19197L12.8579 8.19241L13.8898 9.90563ZM14.7342 11.1286L15.4266 13.0049L15.4267 13.0049L14.7342 11.1286ZM14.5795 11.4483L16.4685 10.7913L16.468 10.7898L14.5795 11.4483ZM13.0751 11.5898L11.0944 11.8672L11.0945 11.868L13.0751 11.5898ZM7.26583 11.1286L7.95843 9.25231L7.9581 9.25219L7.26583 11.1286ZM8.1102 9.90563L9.14213 8.19241L9.14147 8.19201L8.1102 9.90563ZM7.43868 11.3916L5.45804 11.114L9.41928 11.6695L7.43868 11.3916ZM7.42051 11.4483L9.30944 12.1055L9.30946 12.1054L7.42051 11.4483ZM11.9738 15.4295L12.625 15.0665L10.6774 11.5727L10.0262 11.9357L11.9738 15.4295ZM13.3769 12.3087C12.8764 11.4543 11.9629 10.9509 11 10.9509V14.9509C10.5753 14.9509 10.159 14.7291 9.92548 14.3305L13.3769 12.3087ZM11 10.9509C10.0371 10.9509 9.12359 11.4543 8.62308 12.3087L12.0745 14.3305C11.841 14.7291 11.4247 14.9509 11 14.9509V10.9509ZM9.37496 15.0665L10.0262 15.4295L11.9738 11.9357L11.3226 11.5727L9.37496 15.0665ZM9.14033 10.1329C10.6018 10.2836 11.9916 9.24855 12.1584 7.70789L8.18162 7.27743C8.26138 6.54051 8.91275 6.08825 9.55047 6.15399L9.14033 10.1329ZM12.1584 7.70789C12.3261 6.15879 11.177 4.85009 9.70807 4.69867L9.29793 8.67759C8.65278 8.61109 8.10094 8.02278 8.18162 7.27743L12.1584 7.70789ZM12.2919 4.69867C10.823 4.85009 9.67394 6.15879 9.84162 7.70789L13.8184 7.27743C13.8991 8.02278 13.3472 8.61109 12.7021 8.67759L12.2919 4.69867ZM9.84162 7.70789C10.0084 9.24855 11.3982 10.2836 12.8597 10.1329L12.4495 6.15399C13.0872 6.08825 13.7386 6.54051 13.8184 7.27743L9.84162 7.70789ZM4.1921 12.2292L6.3674 12.9367L7.60444 9.13275L5.42914 8.42534L4.1921 12.2292ZM8.07879 7.74446L5.90349 7.03704L4.66645 10.841L6.84174 11.5484L8.07879 7.74446ZM5.45618 10.9853L4.20939 14.1478L7.93065 15.6149L9.17744 12.4523L5.45618 10.9853ZM9.33068 16.1402L10.5775 12.9776L6.8562 11.5106L5.60941 14.6732L9.33068 16.1402ZM16.0965 7.03704L13.9212 7.74446L15.1582 11.5484L17.3335 10.841L16.0965 7.03704ZM15.6326 12.9367L17.8079 12.2292L16.5709 8.42534L14.3956 9.13275L15.6326 12.9367ZM11.4226 12.9776L12.6694 16.1402L16.3906 14.6732L15.1438 11.5106L11.4226 12.9776ZM17.7906 14.1478L16.5438 10.9853L12.8226 12.4523L14.0694 15.6149L17.7906 14.1478ZM11.8012 17.7469L13.377 15.0564L9.92543 13.0348L8.34963 15.7253L11.8012 17.7469ZM12.625 12.2987L11.3226 11.5727L9.37496 15.0665L10.6774 15.7925L12.625 12.2987ZM8.62303 12.3088L7.04722 14.9992L10.4988 17.0208L12.0746 14.3304L8.62303 12.3088ZM15.5801 4.0799L13.6825 4.47661L14.5011 8.39196L16.3987 7.99526L15.5801 4.0799ZM14.8154 9.8229L16.713 9.4262L15.8944 5.51084L13.9968 5.90754L14.8154 9.8229ZM8.31745 4.47662L6.41988 4.07991L5.60132 7.99526L7.49889 8.39197L8.31745 4.47662ZM5.28704 9.4262L7.1846 9.8229L8.00314 5.90754L6.10558 5.51084L5.28704 9.4262ZM8.62303 15.0564L10.1988 17.7469L13.6504 15.7253L12.0746 13.0348L8.62303 15.0564ZM14.9528 14.9992L13.377 12.3088L9.92543 14.3304L11.5012 17.0208L14.9528 14.9992ZM10.6774 11.5727L9.37496 12.2987L11.3226 15.7925L12.625 15.0665L10.6774 11.5727ZM13.6824 4.47664C13.5728 4.49955 13.5315 4.50819 13.4911 4.51634L14.2819 8.43739C14.3397 8.42573 14.3978 8.41357 14.5012 8.39193L13.6824 4.47664ZM14.5863 9.87036C14.6499 9.8575 14.7131 9.84429 14.8155 9.82287L13.9967 5.90757C13.8901 5.92986 13.8417 5.93997 13.7943 5.94953L14.5863 9.87036ZM7.18459 9.8229C7.28668 9.84424 7.35013 9.85752 7.41394 9.8704L8.20544 5.94949C8.1582 5.93995 8.11012 5.92991 8.00315 5.90755L7.18459 9.8229ZM8.50893 4.51634C8.46837 4.50816 8.42673 4.49946 8.31738 4.47661L7.49896 8.39198C7.60263 8.41366 7.66049 8.42576 7.71813 8.43739L8.50893 4.51634ZM8.14506 19.8289C9.63663 19.8289 11.0382 19.0493 11.8011 17.747L8.34971 15.7251C8.32084 15.7744 8.24911 15.8289 8.14506 15.8289V19.8289ZM7.04712 14.9994C7.28555 14.5922 7.71115 14.3655 8.14506 14.3655V18.3655C9.09803 18.3655 10.0029 17.8676 10.4989 17.0207L7.04712 14.9994ZM12.6694 16.1402C12.3068 15.2206 13.0272 14.3655 13.8549 14.3655V18.3655C15.6978 18.3655 17.1176 16.5171 16.3906 14.6732L12.6694 16.1402ZM13.8549 19.8289C16.7508 19.8289 18.8954 16.95 17.7906 14.1478L14.0694 15.6149C14.082 15.6469 14.0808 15.6635 14.0795 15.6732C14.0776 15.6873 14.0708 15.7102 14.0522 15.7366C14.0336 15.763 14.008 15.7859 13.9783 15.8017C13.9518 15.8157 13.9136 15.8289 13.8549 15.8289V19.8289ZM13.9209 7.74454C13.7915 7.78666 13.2925 7.93089 12.8586 8.19197L14.921 11.6193C14.8702 11.6499 14.8513 11.6528 14.903 11.6335C14.926 11.6249 14.9564 11.6143 15.0006 11.5996C15.0508 11.583 15.0889 11.5709 15.1585 11.5483L13.9209 7.74454ZM13.6589 9.42993C13.6801 9.41737 13.7014 9.40536 13.7226 9.39385C13.7318 9.38889 13.7464 9.38104 13.7647 9.3717C13.7691 9.36948 13.779 9.36443 13.7917 9.35816C13.7969 9.35562 13.8114 9.3485 13.8301 9.33976C13.8384 9.33591 13.859 9.32636 13.8857 9.31491C13.8996 9.30899 13.9346 9.29467 13.9557 9.2864C13.9914 9.27306 14.1002 9.23699 14.174 9.2164C14.3982 9.17194 15.9105 9.58034 16.6289 10.7276C16.6096 11.6584 16.0545 12.6005 15.9281 12.7112C15.8779 12.7502 15.7991 12.8067 15.7713 12.8252C15.7542 12.8363 15.7251 12.8547 15.7132 12.8619C15.6749 12.8852 15.6437 12.9023 15.6412 12.9036C15.6239 12.9132 15.6102 12.9204 15.6065 12.9224C15.5558 12.949 15.5164 12.967 15.5012 12.9738C15.4577 12.9934 15.4298 13.0037 15.4266 13.0049L14.0418 9.25223C13.9807 9.27479 13.9201 9.29895 13.8606 9.32574C13.8374 9.33616 13.7942 9.35602 13.7428 9.38307C13.7391 9.38503 13.7253 9.39226 13.708 9.40185C13.7055 9.40322 13.6742 9.42034 13.636 9.44356C13.6241 9.45085 13.595 9.46917 13.5778 9.48029C13.55 9.49884 13.4712 9.55528 13.4211 9.59432C13.2947 9.70502 12.7395 10.6472 12.7203 11.5779C13.4386 12.7252 14.9509 13.1336 15.1751 13.0891C15.2489 13.0685 15.3578 13.0324 15.3934 13.0191C15.4145 13.0108 15.4495 12.9965 15.4635 12.9906C15.4901 12.9791 15.5107 12.9696 15.519 12.9657C15.5378 12.957 15.5523 12.9499 15.5575 12.9473C15.5702 12.941 15.5802 12.936 15.5846 12.9337C15.6031 12.9243 15.6181 12.9162 15.6278 12.911C15.6501 12.8989 15.673 12.8859 15.6965 12.8721L13.6589 9.42993ZM15.4267 13.0049C15.4265 13.0049 15.4301 13.0036 15.439 13.0005C15.4479 12.9974 15.4605 12.9931 15.4782 12.9872C15.5152 12.9749 15.5628 12.9594 15.6326 12.9367L14.3956 9.13275C14.2739 9.17233 14.1479 9.21307 14.0417 9.25226L15.4267 13.0049ZM16.5438 10.9851C16.5173 10.9181 16.4995 10.8728 16.486 10.8377C16.4724 10.8023 16.4684 10.791 16.4685 10.7913L12.6905 12.1052C12.728 12.213 12.7768 12.3363 12.8226 12.4525L16.5438 10.9851ZM16.468 10.7898C16.4701 10.7958 16.4805 10.8259 16.4934 10.8738C16.4967 10.8861 16.5003 10.8999 16.5039 10.9148C16.5057 10.9223 16.5075 10.9298 16.5093 10.9373C16.5111 10.9453 16.5126 10.9519 16.5125 10.9517C16.5125 10.9513 16.5122 10.95 16.5118 10.9482C16.5115 10.9469 16.5105 10.9424 16.5091 10.9367C16.5085 10.9338 16.5072 10.9285 16.5057 10.922C16.5045 10.9169 16.5011 10.9031 16.4965 10.8855C16.4941 10.8762 16.4879 10.8531 16.484 10.8393C16.4773 10.8164 16.4559 10.749 16.4404 10.7047C16.3915 10.5829 15.5987 9.67852 14.5617 9.38811C13.2257 9.89893 12.5617 11.3273 12.563 11.4835C12.5662 11.5354 12.5734 11.6127 12.5764 11.6381C12.5784 11.6532 12.5819 11.6782 12.5834 11.688C12.5862 11.7068 12.5887 11.7213 12.5896 11.7265C12.5916 11.7383 12.5933 11.7476 12.5936 11.7493C12.5942 11.7524 12.5947 11.7549 12.5948 11.7556C12.5949 11.7561 12.595 11.7565 12.595 11.7567C12.595 11.7569 12.5951 11.757 12.5951 11.757C12.5951 11.7572 12.5949 11.7561 12.5946 11.7547C12.5944 11.7533 12.594 11.7515 12.5937 11.7496C12.5929 11.7455 12.5921 11.741 12.5912 11.736C12.5877 11.7159 12.584 11.6929 12.5804 11.6676L16.5422 11.1156C16.5383 11.0877 16.5342 11.0629 16.5305 11.0416C16.5296 11.0363 16.5287 11.0315 16.5279 11.0273C16.5275 11.0252 16.5272 11.0234 16.5269 11.0219C16.5267 11.0204 16.5264 11.0193 16.5264 11.0193C16.5264 11.0193 16.5265 11.0194 16.5265 11.0194C16.5265 11.0195 16.5265 11.0196 16.5265 11.0197C16.5265 11.0199 16.5266 11.0203 16.5267 11.0207C16.5268 11.0214 16.5273 11.0239 16.5279 11.027C16.5282 11.0286 16.5299 11.0379 16.5319 11.0498C16.5328 11.0549 16.5353 11.0695 16.5381 11.0882C16.5396 11.098 16.5431 11.123 16.5451 11.1382C16.5481 11.1635 16.5553 11.2408 16.5585 11.2927C16.5598 11.4489 15.8958 12.8773 14.5598 13.3881C13.5228 13.0977 12.73 12.1933 12.6811 12.0715C12.6656 12.0272 12.6442 11.9598 12.6375 11.937C12.6336 11.9231 12.6274 11.9 12.6249 11.8908C12.6204 11.8731 12.617 11.8593 12.6158 11.8543C12.6143 11.8477 12.613 11.8424 12.6124 11.8395C12.611 11.8338 12.61 11.8293 12.6097 11.8281C12.6093 11.8263 12.609 11.825 12.609 11.8247C12.609 11.8246 12.6105 11.8316 12.6125 11.8403C12.6144 11.8484 12.6164 11.8568 12.6185 11.8653C12.6227 11.8824 12.627 11.8992 12.6315 11.9157C12.6488 11.9802 12.669 12.0436 12.691 12.1067L16.468 10.7898ZM11.0945 11.868C11.166 12.3766 11.3755 12.8581 11.4227 12.9779L15.1437 11.5103C15.1172 11.443 15.1028 11.4074 15.0843 11.3595C15.0681 11.3178 15.0577 11.2896 15.0506 11.2688C15.0435 11.2483 15.0422 11.2423 15.0435 11.2473C15.0448 11.2523 15.0505 11.2748 15.0557 11.3116L11.0945 11.868ZM12.8579 8.19241C11.5981 8.95121 10.8871 10.3862 11.0944 11.8672L15.0558 11.3125C15.0758 11.4551 15.0033 11.5697 14.9217 11.6189L12.8579 8.19241ZM16.5419 11.114C16.6423 11.8298 16.2965 12.5113 15.7084 12.865L13.647 9.43704C12.8905 9.89199 12.4535 10.7621 12.5807 11.6692L16.5419 11.114ZM15.25 8.21486C15.25 7.65056 15.6177 7.19273 16.0965 7.03704L17.3335 10.841C18.4513 10.4775 19.25 9.43625 19.25 8.21486H15.25ZM17.8078 12.2293C19.5383 11.6666 20.75 10.066 20.75 8.21486H16.75C16.75 8.28066 16.7045 8.38189 16.571 8.4253L17.8078 12.2293ZM4.20939 14.1478C3.1047 16.9499 5.2492 19.8289 8.14506 19.8289V15.8289C8.08636 15.8289 8.04819 15.8158 8.02173 15.8017C7.992 15.7859 7.96644 15.7631 7.94784 15.7366C7.92926 15.7102 7.92242 15.6873 7.9205 15.6732C7.91919 15.6635 7.91803 15.6469 7.93065 15.6149L4.20939 14.1478ZM8.14506 14.3655C8.97302 14.3655 9.69314 15.2208 9.33066 16.1402L5.60942 14.6732C4.88254 16.5169 6.302 18.3655 8.14506 18.3655V14.3655ZM6.36736 12.9366C6.43717 12.9594 6.48482 12.9749 6.5218 12.9872C6.53957 12.9932 6.55213 12.9974 6.5611 13.0005C6.57002 13.0036 6.57363 13.005 6.57356 13.0049L7.9581 9.25219C7.85201 9.21305 7.72619 9.17235 7.60448 9.13276L6.36736 12.9366ZM6.57323 13.0048C6.56977 13.0035 6.54166 12.9931 6.49783 12.9734C6.48107 12.9658 6.44365 12.9487 6.39582 12.9236C6.39235 12.9218 6.38094 12.9158 6.36645 12.9079C6.36394 12.9065 6.33909 12.893 6.30843 12.8749C6.29903 12.8693 6.27617 12.8554 6.26274 12.8471C6.24129 12.8334 6.18116 12.7931 6.14294 12.7657C6.05006 12.6934 5.56552 12.1029 5.35413 11.4904C5.8156 9.84108 7.63147 9.17631 7.87395 9.22945C7.94353 9.25067 8.04459 9.28653 8.07667 9.29921C8.09521 9.30683 8.12582 9.3199 8.13792 9.32523C8.16084 9.33542 8.17857 9.34384 8.18551 9.34714C8.20147 9.35474 8.21383 9.3609 8.21829 9.36312C8.22928 9.36861 8.23788 9.37303 8.24187 9.37509C8.25867 9.38375 8.27237 9.39111 8.28169 9.39619C8.30269 9.40763 8.32391 9.4197 8.34533 9.43245L6.29927 12.8695C6.3229 12.8836 6.34583 12.8966 6.36789 12.9087C6.37774 12.914 6.39181 12.9216 6.4088 12.9303C6.41284 12.9324 6.42148 12.9369 6.4325 12.9424C6.43697 12.9446 6.44934 12.9508 6.4653 12.9584C6.47224 12.9617 6.48998 12.9701 6.5129 12.9803C6.52501 12.9856 6.55561 12.9987 6.57416 13.0063C6.60623 13.019 6.70729 13.0548 6.77687 13.0761C7.01935 13.1292 8.83522 12.4644 9.2967 10.8151C9.08531 10.2026 8.60076 9.61214 8.50789 9.53976C8.46966 9.51242 8.40953 9.47207 8.38808 9.45843C8.37466 9.45008 8.35179 9.4362 8.34239 9.43062C8.31172 9.41251 8.28687 9.39901 8.28435 9.39763C8.26984 9.3897 8.2584 9.3837 8.25488 9.38185C8.20633 9.35637 8.1651 9.33731 8.14035 9.32616C8.08054 9.29923 8.01977 9.27495 7.95843 9.25231L6.57323 13.0048ZM9.14147 8.19201C8.70753 7.93087 8.20841 7.78663 8.07896 7.74452L6.84156 11.5483C6.91115 11.5709 6.94923 11.583 6.9995 11.5997C7.04364 11.6143 7.07408 11.6249 7.09704 11.6335C7.1488 11.6528 7.12979 11.6499 7.07893 11.6192L9.14147 8.19201ZM10.5774 12.9777C10.6245 12.8583 10.8342 12.3763 10.9055 11.8674L6.94421 11.3123C6.94938 11.2753 6.95513 11.2526 6.95646 11.2476C6.95778 11.2425 6.95645 11.2484 6.9494 11.2689C6.94227 11.2897 6.93193 11.3178 6.91573 11.3596C6.89716 11.4075 6.88283 11.443 6.85625 11.5104L10.5774 12.9777ZM9.41928 11.6695C9.41571 11.6949 9.41194 11.7181 9.40827 11.7387C9.40637 11.7494 9.40474 11.758 9.40383 11.7628C9.38709 11.8506 9.41476 11.715 9.42597 11.6182C9.43165 11.5622 9.4346 11.2519 9.40119 10.9998C7.88082 9.43745 5.68099 10.4349 5.56249 10.6969C5.5427 10.7532 5.51743 10.8344 5.51058 10.8587C5.50692 10.8722 5.50118 10.8942 5.49904 10.9027C5.49517 10.9182 5.49233 10.9303 5.49147 10.934C5.49024 10.9393 5.48928 10.9435 5.48879 10.9457C5.48782 10.95 5.48707 10.9533 5.48693 10.954C5.4868 10.9546 5.48669 10.9551 5.48663 10.9553C5.48658 10.9556 5.48653 10.9558 5.48652 10.9558C5.48647 10.956 5.4867 10.955 5.48697 10.9538C5.48725 10.9525 5.48759 10.951 5.48797 10.9493C5.48875 10.9459 5.48959 10.9422 5.49049 10.9383C5.49229 10.9305 5.49411 10.9228 5.49596 10.9153C5.49964 10.9002 5.5032 10.8865 5.50652 10.8741C5.51936 10.8265 5.52962 10.7967 5.53156 10.7911L9.30946 12.1054C9.33129 12.0427 9.35134 11.9795 9.36864 11.9153C9.37308 11.8988 9.37743 11.882 9.38163 11.8648C9.38374 11.8562 9.38576 11.8476 9.3877 11.8392C9.38868 11.835 9.38957 11.8311 9.3904 11.8274C9.3908 11.8256 9.39116 11.824 9.39146 11.8227C9.39174 11.8214 9.39198 11.8203 9.39194 11.8205C9.39194 11.8205 9.39189 11.8207 9.39184 11.821C9.39179 11.8212 9.39168 11.8217 9.39155 11.8223C9.39141 11.8229 9.39067 11.8263 9.3897 11.8305C9.38921 11.8327 9.38825 11.8369 9.38702 11.8422C9.38616 11.8459 9.38333 11.858 9.37946 11.8735C9.37732 11.8819 9.37157 11.904 9.36791 11.9175C9.36106 11.9418 9.3358 12.023 9.31601 12.0793C9.19751 12.3413 6.99768 13.3387 5.47731 11.7764C5.44389 11.5243 5.44684 11.214 5.45252 11.158C5.46374 11.0612 5.49139 10.9257 5.47463 11.0135C5.47368 11.0186 5.47198 11.0276 5.46997 11.0389C5.46609 11.0607 5.462 11.0858 5.45808 11.1137L9.41928 11.6695ZM5.53158 10.791C5.53168 10.7908 5.52772 10.8021 5.51401 10.8376C5.50044 10.8729 5.48262 10.9182 5.45616 10.9853L9.17746 12.4523C9.22313 12.3364 9.272 12.2131 9.30944 12.1055L5.53158 10.791ZM6.29124 12.8647C5.70356 12.5112 5.35769 11.83 5.45804 11.114L9.41932 11.6692C9.54647 10.7619 9.10936 9.8921 8.35336 9.43725L6.29124 12.8647ZM10.9055 11.8673C11.113 10.3862 10.4019 8.9512 9.14213 8.19241L7.07827 11.6189C6.99671 11.5697 6.92419 11.4551 6.94419 11.3123L10.9055 11.8673ZM1.25 8.21486C1.25 10.0661 2.46176 11.6666 4.19221 12.2293L5.42903 8.4253C5.2955 8.38188 5.25 8.28062 5.25 8.21486H1.25ZM5.90353 7.03705C6.38232 7.19277 6.75 7.65063 6.75 8.21486H2.75C2.75 9.43618 3.54866 10.4774 4.66641 10.8409L5.90353 7.03705ZM6.75 8.21486C6.75 9.05925 5.98178 9.57144 5.28702 9.42619L6.1056 5.51085C4.43677 5.16195 2.75 6.39858 2.75 8.21486H6.75ZM6.41986 4.0799C3.81728 3.53583 1.25 5.46691 1.25 8.21486H5.25C5.25 8.16124 5.26975 8.10587 5.33603 8.05359C5.40376 8.00017 5.49499 7.97303 5.60134 7.99526L6.41986 4.0799ZM10.1989 17.747C10.9618 19.0493 12.3633 19.8289 13.8549 19.8289V15.8289C13.7509 15.8289 13.6792 15.7744 13.6503 15.7251L10.1989 17.747ZM13.8549 14.3655C14.289 14.3655 14.7145 14.5924 14.9528 14.9992L11.5012 17.0208C11.9971 17.8675 12.9018 18.3655 13.8549 18.3655V14.3655ZM20.75 8.21486C20.75 5.46692 18.1827 3.53581 15.5801 4.07991L16.3987 7.99526C16.505 7.97303 16.5962 8.00016 16.664 8.05359C16.7303 8.10587 16.75 8.16124 16.75 8.21486H20.75ZM16.713 9.42619C16.0182 9.57146 15.25 9.05926 15.25 8.21486H19.25C19.25 6.39857 17.5632 5.16193 15.8944 5.51085L16.713 9.42619ZM9.70802 4.69867C9.30622 4.65726 8.90615 4.5965 8.50917 4.51638L7.71789 8.43734C8.24127 8.54296 8.76858 8.62304 9.29798 8.67759L9.70802 4.69867ZM7.41409 9.87043C7.98589 9.98581 8.56201 10.0733 9.14035 10.1329L9.55045 6.15399C9.09967 6.10752 8.65074 6.03935 8.2053 5.94946L7.41409 9.87043ZM13.4909 4.51638C13.0939 4.5965 12.6938 4.65726 12.292 4.69867L12.702 8.67759C13.2314 8.62304 13.7587 8.54296 14.2821 8.43734L13.4909 4.51638ZM12.8596 10.1329C13.438 10.0733 14.0141 9.98581 14.5859 9.87042L13.7947 5.94946C13.3493 6.03935 12.9004 6.10752 12.4496 6.15398L12.8596 10.1329Z" fill="#283E50" mask="url(#path-2-inside-1_878_32)"/>
<path d="M18.4537 13.6829C20.0372 14.4595 21 15.4853 21 16.6097C21 17.3398 20.594 18.0283 19.8758 18.634M3.54631 13.6829C1.96285 14.4595 1 15.4853 1 16.6097C1 19.0344 5.47715 20.9999 11 20.9999C12.8214 20.9999 14.5291 20.7862 16 20.4126" stroke="#283E50" stroke-width="2" stroke-linecap="round"/>
</svg>
