<svg width="22" height="22" viewBox="0 0 22 22" fill="none" xmlns="http://www.w3.org/2000/svg">
<path d="M16 11C18.7614 11 21 8.76143 21 6.00001C21 3.23858 18.7614 1 16 1C13.2386 1 11 3.23858 11 6.00001C11 6.79985 11.1878 7.55583 11.5217 8.22625C11.6105 8.40441 11.64 8.60804 11.5886 8.80032L11.2908 9.91331C11.1615 10.3965 11.6035 10.8385 12.0867 10.7092L13.1997 10.4114C13.392 10.36 13.5956 10.3895 13.7738 10.4783C14.4442 10.8122 15.2002 11 16 11Z" stroke="#283E50" stroke-width="2"/>
<path d="M1.00655 8.9331C0.934212 10.8412 1.41713 14.0817 4.6677 17.3323C5.45191 18.1165 6.23553 18.7396 7 19.2327M2.53781 5.93723C3.93076 4.54428 6.15317 4.73144 7.03759 6.31617L7.6866 7.4791C8.2723 8.52859 8.03718 9.90531 7.11471 10.8278C7.11471 10.8278 5.99588 11.9468 8.02451 13.9755C10.0525 16.0035 11.1722 14.8853 11.1722 14.8853C12.0947 13.9628 13.4714 13.7277 14.5209 14.3134L15.6838 14.9624C17.2686 15.8468 17.4557 18.0692 16.0628 19.4622C15.2258 20.2992 14.2004 20.9505 13.0669 20.9934C12.2529 21.0243 11.1963 20.9541 10 20.6111" stroke="#283E50" stroke-width="2" stroke-linecap="round"/>
</svg>
