<svg width="20" height="17" viewBox="0 0 20 17" fill="none" xmlns="http://www.w3.org/2000/svg">
<path fill-rule="evenodd" clip-rule="evenodd" d="M15 0C16.5977 0 17.9037 1.17954 17.9949 2.66685L18 2.83333V6.94176L18.5939 6.69252C19.2076 6.43491 19.9163 6.83466 19.9931 7.44563L20 7.55556V15.1111C20 16.1069 19.1842 16.9227 18.1493 16.9948L18 17H2C0.945638 17 0.0818349 16.2295 0.00548577 15.2521L0 15.1111V7.55556C0 6.92127 0.674637 6.47198 1.297 6.65379L1.40614 6.69252L2 6.94176V2.83333C2 1.32442 3.24892 0.0909871 4.82373 0.0048097L5 0H15ZM18 9.00887L10.8123 12.0259C10.2951 12.2429 9.7049 12.2429 9.1877 12.0259L2 9.00887V15.1111H18V9.00887ZM15 1.88889H5C4.44772 1.88889 4 2.31174 4 2.83333V7.78128L10 10.2998L16 7.78128V2.83333C16 2.31174 15.5523 1.88889 15 1.88889ZM10 4.72222C10.5523 4.72222 11 5.14507 11 5.66667C11 6.15101 10.614 6.5502 10.1166 6.60476L10 6.61111H8C7.44772 6.61111 7 6.18826 7 5.66667C7 5.18233 7.38604 4.78313 7.88338 4.72858L8 4.72222H10Z" fill="#283E50"/>
</svg>
