<svg width="22" height="22" viewBox="0 0 22 22" fill="none" xmlns="http://www.w3.org/2000/svg">
<rect width="22" height="22" fill="#E3E3E3"/>
<g clip-path="url(#clip0_0_1)">
<rect x="-41" y="-273" width="360" height="1022" rx="40" fill="#FEEAD4"/>
<rect x="-30" y="-184" width="338" height="914" rx="46" fill="#D9D9D9"/>
<rect x="-30" y="-184" width="338" height="914" rx="46" fill="#D9D9D9"/>
<path d="M16.2606 10.4402C18.8781 10.4402 21 8.3269 21 5.72008C21 3.11325 18.8781 1 16.2606 1C13.643 1 11.5211 3.11325 11.5211 5.72008C11.5211 6.92754 12.0722 7.80569 12.0722 7.80569L6.3408 13.5137C6.08363 13.7698 5.72357 14.4358 6.3408 15.0505L7.00212 15.7091C7.25929 15.9286 7.90589 16.236 8.43495 15.7091L9.2065 14.9407C9.978 15.7091 10.8598 15.27 11.1904 14.8309C11.7415 14.0625 11.0802 13.2942 11.0802 13.2942L11.3007 13.0746C12.3588 14.1284 13.2846 13.5137 13.6153 13.0746C14.1664 12.3062 13.6153 11.5378 13.6153 11.5378C13.3948 11.0988 12.954 11.0988 13.505 10.5499L14.1664 9.8913C14.6954 10.3304 15.7829 10.4402 16.2606 10.4402Z" stroke="#283E50" stroke-width="2" stroke-linejoin="round"/>
<path d="M1 10.9899C1 15.7087 1 18.0681 2.46594 19.5341C3.93188 21 6.29127 21 11.0101 21C15.7288 21 18.0882 21 19.5542 19.5341C20.6692 18.419 20.9361 16.787 21 13.993M8.00704 1C5.21298 1.06388 3.58099 1.33078 2.46594 2.44584C1.48914 3.42263 1.16321 4.79612 1.05446 7" stroke="#283E50" stroke-width="2" stroke-linecap="round"/>
</g>
<defs>
<clipPath id="clip0_0_1">
<rect x="-41" y="-273" width="360" height="1022" rx="40" fill="white"/>
</clipPath>
</defs>
</svg>
