<svg width="22" height="22" viewBox="0 0 22 22" fill="none" xmlns="http://www.w3.org/2000/svg">
<path d="M5 17L5.34305 16.657" stroke="#283E50" stroke-width="2" stroke-linecap="round"/>
<path d="M11 1V3" stroke="#283E50" stroke-width="2" stroke-linecap="round"/>
<path d="M11 19V21" stroke="#283E50" stroke-width="2" stroke-linecap="round"/>
<path d="M1 11H3" stroke="#283E50" stroke-width="2" stroke-linecap="round"/>
<path d="M18.9998 11H20.9998" stroke="#283E50" stroke-width="2" stroke-linecap="round"/>
<path d="M16.6565 5.34314L16.9998 4.99988" stroke="#283E50" stroke-width="2" stroke-linecap="round"/>
<path d="M17 17L16.657 16.657" stroke="#283E50" stroke-width="2" stroke-linecap="round"/>
<path d="M5.34326 5.34314L5 4.99988" stroke="#283E50" stroke-width="2" stroke-linecap="round"/>
<path d="M14.2653 13.6272C14.3921 14.9353 14.4554 15.5894 14.0724 15.8801C13.6894 16.1709 13.1137 15.9058 11.9622 15.3756L11.6643 15.2384C11.337 15.0878 11.1734 15.0124 11 15.0124C10.8266 15.0124 10.663 15.0878 10.3357 15.2384L10.0378 15.3756C8.88634 15.9058 8.31059 16.1709 7.92757 15.8801C7.54456 15.5894 7.60794 14.9353 7.7347 13.6272L7.76749 13.2888C7.80351 12.9171 7.82152 12.7312 7.76793 12.5589C7.71434 12.3865 7.59521 12.2472 7.35696 11.9686L7.14005 11.715C6.30162 10.7345 5.88241 10.2443 6.02871 9.7739C6.13469 9.4331 6.4866 9.2661 7.14005 9.0942M9.5766 7.70419C10.2099 6.56806 10.5266 6 11 6C11.4734 6 11.7901 6.56806 12.4234 7.70419L12.5873 7.99812C12.7672 8.32097 12.8572 8.48239 12.9975 8.5889C13.1378 8.69541 13.3126 8.73495 13.6621 8.81402L13.9802 8.88601C15.2101 9.1643 15.825 9.3034 15.9713 9.7739C16.0769 10.1134 15.8879 10.4631 15.4595 11" stroke="#283E50" stroke-width="2" stroke-linecap="round"/>
</svg>
