<svg width="20" height="22" viewBox="0 0 20 22" fill="none" xmlns="http://www.w3.org/2000/svg">
<path d="M10 1.1L10.5436 0.140637C10.206 -0.0468791 9.794 -0.0468791 9.45644 0.140637L10 1.1ZM11.5529 1.9624L11.0093 2.92176C11.1713 3.01171 11.3534 3.06003 11.5391 3.06231L11.5529 1.9624ZM13.3333 1.98423L14.2887 1.42248C14.0909 1.09295 13.7342 0.889065 13.3471 0.884313L13.3333 1.98423ZM14.2427 3.49978L13.2873 4.06153C13.3822 4.2196 13.5156 4.35163 13.6752 4.44552L14.2427 3.49978ZM15.7735 4.39999L16.8845 4.38636C16.8798 4.00312 16.6738 3.64998 16.3409 3.45425L15.7735 4.39999ZM15.7955 6.16261L14.6846 6.17622C14.6868 6.36007 14.7357 6.54041 14.8264 6.70076L15.7955 6.16261ZM16.6667 7.69998L17.6358 8.23815C17.8251 7.90387 17.8251 7.4961 17.6358 7.16182L16.6667 7.69998ZM15.7955 9.23734L14.8264 8.69921C14.7357 8.8596 14.6868 9.03989 14.6846 9.2237L15.7955 9.23734ZM15.7735 11L16.3409 11.9458C16.6738 11.75 16.8798 11.3969 16.8845 11.0136L15.7735 11ZM14.2427 11.9002L13.6752 10.9544C13.5156 11.0484 13.3822 11.1804 13.2873 11.3384L14.2427 11.9002ZM13.3333 13.4158L13.3471 14.5157C13.7342 14.5109 14.0909 14.307 14.2887 13.9775L13.3333 13.4158ZM11.5529 13.4376L11.5391 12.3377C11.3534 12.3399 11.1713 12.3883 11.0093 12.4782L11.5529 13.4376ZM10 14.3L9.45644 15.2594C9.794 15.4468 10.206 15.4468 10.5436 15.2594L10 14.3ZM8.44711 13.4376L8.99066 12.4782C8.82866 12.3883 8.64655 12.3399 8.46089 12.3377L8.44711 13.4376ZM6.66667 13.4158L5.71137 13.9775C5.90908 14.307 6.26579 14.5109 6.6529 14.5157L6.66667 13.4158ZM5.75735 11.9002L6.71265 11.3384C6.61781 11.1804 6.48447 11.0484 6.32479 10.9544L5.75735 11.9002ZM4.2265 11L3.11547 11.0136C3.12027 11.3969 3.32621 11.75 3.65907 11.9458L4.2265 11ZM4.20444 9.23734L5.31547 9.2237C5.31317 9.03989 5.26435 8.8596 5.1735 8.69921L4.20444 9.23734ZM3.33333 7.69998L2.36428 7.16182C2.17487 7.4961 2.17487 7.90387 2.36428 8.23815L3.33333 7.69998ZM4.20444 6.16261L5.1735 6.70076C5.26435 6.54041 5.31317 6.36007 5.31547 6.17622L4.20444 6.16261ZM4.2265 4.39999L3.65907 3.45425C3.32621 3.64998 3.12027 4.00312 3.11547 4.38637L4.2265 4.39999ZM5.75735 3.49978L6.32479 4.44552C6.48447 4.35163 6.61781 4.21961 6.71265 4.06153L5.75735 3.49978ZM6.66667 1.98423L6.65291 0.884313C6.26579 0.889065 5.90908 1.09295 5.71137 1.42248L6.66667 1.98423ZM8.44711 1.9624L8.46089 3.06231C8.64655 3.06003 8.82866 3.01171 8.99066 2.92176L8.44711 1.9624ZM1.11111 18.7L0.117302 18.208C-0.0549091 18.549 -0.0365093 18.9539 0.165946 19.2783C0.368402 19.6026 0.726024 19.8 1.11111 19.8V18.7ZM3.88889 18.7L4.77778 18.04C4.56794 17.763 4.23862 17.6 3.88889 17.6V18.7ZM5.55555 20.9L4.66667 21.56C4.89772 21.865 5.27181 22.0298 5.65534 21.9956C6.03887 21.9613 6.37714 21.7329 6.54937 21.3919L5.55555 20.9ZM18.8889 18.7V19.8C19.274 19.8 19.6315 19.6026 19.8341 19.2783C20.0365 18.9539 20.0549 18.549 19.8827 18.208L18.8889 18.7ZM16.1111 18.7V17.6C15.7613 17.6 15.4321 17.763 15.2222 18.04L16.1111 18.7ZM14.4444 20.9L13.4507 21.3919C13.6229 21.7329 13.9611 21.9613 14.3447 21.9956C14.7282 22.0298 15.1023 21.865 15.3333 21.56L14.4444 20.9ZM18.216 14.908C17.9415 14.3646 17.2742 14.1444 16.7253 14.4161C16.1764 14.6878 15.954 15.3486 16.2284 15.8919L18.216 14.908ZM13.7716 17.108C13.4971 16.5646 12.8298 16.3444 12.2809 16.6161C11.732 16.8878 11.5096 17.5486 11.784 18.0919L13.7716 17.108ZM8.216 18.0919C8.49044 17.5486 8.268 16.8878 7.71912 16.6161C7.17027 16.3444 6.50284 16.5646 6.22841 17.108L8.216 18.0919ZM3.77159 15.8919C4.04602 15.3486 3.82354 14.6878 3.27468 14.4161C2.72582 14.1444 2.0584 14.3646 1.78397 14.908L3.77159 15.8919ZM9.45644 2.05936L11.0093 2.92176L12.0966 1.00304L10.5436 0.140637L9.45644 2.05936ZM11.5391 3.06231L13.3196 3.08414L13.3471 0.884313L11.5667 0.862489L11.5391 3.06231ZM12.378 2.54599L13.2873 4.06153L15.1979 2.93803L14.2887 1.42248L12.378 2.54599ZM13.6752 4.44552L15.2061 5.34574L16.3409 3.45425L14.8101 2.55404L13.6752 4.44552ZM14.6624 4.41362L14.6846 6.17622L16.9065 6.14898L16.8845 4.38636L14.6624 4.41362ZM14.8264 6.70076L15.6975 8.23815L17.6358 7.16182L16.7647 5.62444L14.8264 6.70076ZM15.6975 7.16182L14.8264 8.69921L16.7647 9.77557L17.6358 8.23815L15.6975 7.16182ZM14.6846 9.2237L14.6624 10.9863L16.8845 11.0136L16.9065 9.25098L14.6846 9.2237ZM13.2873 11.3384L12.378 12.854L14.2887 13.9775L15.1979 12.462L13.2873 11.3384ZM13.3196 12.3158L11.5391 12.3377L11.5667 14.5375L13.3471 14.5157L13.3196 12.3158ZM8.46089 12.3377L6.68043 12.3158L6.6529 14.5157L8.43333 14.5375L8.46089 12.3377ZM7.62196 12.854L6.71265 11.3384L4.80207 12.462L5.71137 13.9775L7.62196 12.854ZM5.33752 10.9863L5.31547 9.2237L3.09342 9.25098L3.11547 11.0136L5.33752 10.9863ZM5.1735 8.69921L4.30239 7.16182L2.36428 8.23815L3.23539 9.77557L5.1735 8.69921ZM4.30239 8.23815L5.1735 6.70076L3.23539 5.62444L2.36428 7.16182L4.30239 8.23815ZM5.31547 6.17622L5.33752 4.41361L3.11547 4.38637L3.09342 6.14898L5.31547 6.17622ZM4.79393 5.34574L6.32479 4.44552L5.18993 2.55404L3.65907 3.45425L4.79393 5.34574ZM6.71265 4.06153L7.62196 2.54599L5.71137 1.42248L4.80207 2.93803L6.71265 4.06153ZM6.68042 3.08414L8.46089 3.06231L8.43333 0.862489L6.65291 0.884313L6.68042 3.08414ZM8.99066 2.92176L10.5436 2.05936L9.45644 0.140637L7.90344 1.00304L8.99066 2.92176ZM15.2061 10.0542L13.6752 10.9544L14.8101 12.8459L16.3409 11.9458L15.2061 10.0542ZM6.32479 10.9544L4.79393 10.0542L3.65907 11.9458L5.18993 12.8459L6.32479 10.9544ZM11.0093 12.4782L9.45644 13.3406L10.5436 15.2594L12.0966 14.397L11.0093 12.4782ZM10.5436 13.3406L8.99066 12.4782L7.90344 14.397L9.45644 15.2594L10.5436 13.3406ZM1.11111 19.8H3.88889V17.6H1.11111V19.8ZM3 19.36L4.66667 21.56L6.44444 20.24L4.77778 18.04L3 19.36ZM18.8889 17.6H16.1111V19.8H18.8889V17.6ZM15.2222 18.04L13.5556 20.24L15.3333 21.56L17 19.36L15.2222 18.04ZM16.2284 15.8919L17.8951 19.1919L19.8827 18.208L18.216 14.908L16.2284 15.8919ZM11.784 18.0919L13.4507 21.3919L15.4382 20.408L13.7716 17.108L11.784 18.0919ZM6.22841 17.108L4.56174 20.408L6.54937 21.3919L8.216 18.0919L6.22841 17.108ZM1.78397 14.908L0.117302 18.208L2.10492 19.1919L3.77159 15.8919L1.78397 14.908ZM11.1111 7.69998C11.1111 8.30749 10.6137 8.79998 10 8.79998V11C11.841 11 13.3333 9.52257 13.3333 7.69998H11.1111ZM10 8.79998C9.38633 8.79998 8.88889 8.30749 8.88889 7.69998H6.66667C6.66667 9.52257 8.159 11 10 11V8.79998ZM8.88889 7.69998C8.88889 7.09248 9.38633 6.59999 10 6.59999V4.39999C8.159 4.39999 6.66667 5.87745 6.66667 7.69998H8.88889ZM10 6.59999C10.6137 6.59999 11.1111 7.09248 11.1111 7.69998H13.3333C13.3333 5.87745 11.841 4.39999 10 4.39999V6.59999Z" fill="#283E50"/>
</svg>
