<svg width="23" height="23" viewBox="0 0 23 23" fill="none" xmlns="http://www.w3.org/2000/svg">
<g clip-path="url(#clip0_876_12)">
<path d="M23 11.5C23 14.55 21.7884 17.4751 19.6317 19.6317C17.4751 21.7884 14.55 23 11.5 23C8.45001 23 5.52494 21.7884 3.36827 19.6317C1.2116 17.4751 0 14.55 0 11.5C0 11.2458 0.100967 11.0021 0.280689 10.8224C0.460412 10.6426 0.704168 10.5417 0.958333 10.5417C1.2125 10.5417 1.45625 10.6426 1.63598 10.8224C1.8157 11.0021 1.91667 11.2458 1.91667 11.5C1.91667 13.3954 2.47872 15.2482 3.53175 16.8242C4.58478 18.4002 6.08149 19.6285 7.83262 20.3538C9.58374 21.0792 11.5106 21.269 13.3696 20.8992C15.2286 20.5294 16.9362 19.6167 18.2764 18.2764C19.6167 16.9362 20.5294 15.2286 20.8992 13.3696C21.269 11.5106 21.0792 9.58374 20.3538 7.83262C19.6285 6.08149 18.4002 4.58478 16.8242 3.53175C15.2482 2.47872 13.3954 1.91667 11.5 1.91667C11.2458 1.91667 11.0021 1.8157 10.8224 1.63598C10.6426 1.45625 10.5417 1.2125 10.5417 0.958333C10.5417 0.704168 10.6426 0.460412 10.8224 0.280689C11.0021 0.100967 11.2458 0 11.5 0C14.549 0.0032977 17.4721 1.21596 19.6281 3.37191C21.784 5.52787 22.9967 8.45102 23 11.5ZM9.84879 10.5417H7.66667C7.4125 10.5417 7.16875 10.6426 6.98902 10.8224C6.8093 11.0021 6.70833 11.2458 6.70833 11.5C6.70833 11.7542 6.8093 11.9979 6.98902 12.1776C7.16875 12.3574 7.4125 12.4583 7.66667 12.4583H9.84879C9.99514 12.7125 10.198 12.9296 10.4418 13.0927C10.6855 13.2559 10.9635 13.3608 11.2543 13.3992C11.545 13.4377 11.8408 13.4087 12.1185 13.3145C12.3963 13.2203 12.6486 13.0634 12.856 12.856C13.0634 12.6486 13.2203 12.3963 13.3145 12.1185C13.4087 11.8408 13.4377 11.545 13.3992 11.2543C13.3608 10.9635 13.2559 10.6855 13.0927 10.4418C12.9296 10.198 12.7125 9.99514 12.4583 9.84879V6.70833C12.4583 6.45417 12.3574 6.21041 12.1776 6.03069C11.9979 5.85097 11.7542 5.75 11.5 5.75C11.2458 5.75 11.0021 5.85097 10.8224 6.03069C10.6426 6.21041 10.5417 6.45417 10.5417 6.70833V9.84879C10.2546 10.0158 10.0158 10.2546 9.84879 10.5417ZM1.75087 8.418C1.94042 8.418 2.1257 8.36179 2.2833 8.25649C2.44089 8.15119 2.56373 8.00152 2.63626 7.8264C2.70879 7.65129 2.72777 7.4586 2.69079 7.2727C2.65382 7.08681 2.56254 6.91605 2.42852 6.78202C2.29449 6.648 2.12374 6.55672 1.93784 6.51975C1.75194 6.48277 1.55925 6.50175 1.38414 6.57428C1.20902 6.64682 1.05935 6.76965 0.95405 6.92725C0.848747 7.08484 0.792542 7.27013 0.792542 7.45967C0.792542 7.71383 0.893509 7.95759 1.07323 8.13731C1.25295 8.31703 1.49671 8.418 1.75087 8.418ZM4.04513 4.99004C4.23467 4.99004 4.41995 4.93384 4.57755 4.82853C4.73514 4.72323 4.85798 4.57356 4.93051 4.39845C5.00304 4.22333 5.02202 4.03064 4.98504 3.84475C4.94807 3.65885 4.85679 3.48809 4.72277 3.35406C4.58874 3.22004 4.41799 3.12877 4.23209 3.09179C4.04619 3.05481 3.8535 3.07379 3.67839 3.14632C3.50327 3.21886 3.3536 3.34169 3.2483 3.49929C3.143 3.65688 3.08679 3.84217 3.08679 4.03171C3.08679 4.28587 3.18776 4.52963 3.36748 4.70935C3.5472 4.88907 3.79096 4.99004 4.04513 4.99004ZM7.45487 2.72263C7.64442 2.72263 7.8297 2.66642 7.9873 2.56112C8.14489 2.45581 8.26773 2.30614 8.34026 2.13103C8.41279 1.95592 8.43177 1.76323 8.39479 1.57733C8.35782 1.39143 8.26654 1.22067 8.13252 1.08665C7.99849 0.952622 7.82773 0.86135 7.64184 0.824372C7.45594 0.787395 7.26325 0.806373 7.08814 0.878907C6.91302 0.951441 6.76335 1.07427 6.65805 1.23187C6.55275 1.38947 6.49654 1.57475 6.49654 1.76429C6.49654 2.01846 6.59751 2.26221 6.77723 2.44194C6.95695 2.62166 7.20071 2.72263 7.45487 2.72263Z" fill="#283E50"/>
</g>
<defs>
<clipPath id="clip0_876_12">
<rect width="23" height="23" fill="white"/>
</clipPath>
</defs>
</svg>
