<svg width="22" height="22" viewBox="0 0 22 22" fill="none" xmlns="http://www.w3.org/2000/svg">
<rect width="22" height="22" fill="#E3E3E3"/>
<g clip-path="url(#clip0_0_1)">
<rect x="-41" y="-238" width="360" height="1022" rx="40" fill="#FEEAD4"/>
<path d="M272 -241.431C272 -145.003 69.7505 11 -27.4725 11C-124.695 11 -89.9711 -49.8157 -89.9711 -146.244C-89.9711 -242.672 -11.1563 -320.842 86.0667 -320.842C183.29 -320.842 272 -337.859 272 -241.431Z" fill="#283E50"/>
<rect x="-30" y="-149" width="338" height="914" rx="46" fill="#D9D9D9"/>
<rect x="-30" y="-149" width="338" height="914" rx="46" fill="#D9D9D9"/>
<path d="M11.12 11.78C11.05 11.77 10.96 11.77 10.88 11.78C9.12 11.72 7.71997 10.28 7.71997 8.50996C7.71997 6.69997 9.18 5.22998 11 5.22998C12.81 5.22998 14.28 6.69997 14.28 8.50996C14.27 10.28 12.88 11.72 11.12 11.78Z" stroke="#283E50" stroke-width="2" stroke-linecap="round" stroke-linejoin="round"/>
<path d="M17.74 18.38C15.96 20.01 13.6 21 11 21C8.40001 21 6.04001 20.01 4.26001 18.38C4.36001 17.44 4.96001 16.52 6.03001 15.8001C8.77001 13.9801 13.25 13.9801 15.97 15.8001C17.04 16.52 17.64 17.44 17.74 18.38Z" stroke="#283E50" stroke-width="2" stroke-linecap="round" stroke-linejoin="round"/>
<path d="M11 20.9999C16.5228 20.9999 21 16.5227 21 11C21 5.47713 16.5228 1 11 1C5.47715 1 1 5.47713 1 11C1 16.5227 5.47715 20.9999 11 20.9999Z" stroke="#283E50" stroke-width="2" stroke-linecap="round" stroke-linejoin="round"/>
</g>
<defs>
<clipPath id="clip0_0_1">
<rect x="-41" y="-238" width="360" height="1022" rx="40" fill="white"/>
</clipPath>
</defs>
</svg>
