<svg width="31" height="31" viewBox="0 0 31 31" fill="none" xmlns="http://www.w3.org/2000/svg">
<path d="M1 1V27.1C1 27.8691 1.30553 28.6068 1.84939 29.1506C2.39325 29.6945 3.13087 30 3.9 30H30" stroke="#FF997A" stroke-width="1.5" stroke-linecap="round" stroke-linejoin="round"/>
<path d="M11.15 17.675C11.15 16.4738 10.1763 15.5 8.97505 15.5C7.77383 15.5 6.80005 16.4738 6.80005 17.675V22.025C6.80005 23.2262 7.77383 24.2 8.97505 24.2C10.1763 24.2 11.15 23.2262 11.15 22.025V17.675Z" stroke="#FF997A" stroke-width="1.5" stroke-linecap="round" stroke-linejoin="round"/>
<path d="M19.85 10.425C19.85 9.22378 18.8762 8.25 17.675 8.25C16.4738 8.25 15.5 9.22378 15.5 10.425V14.775C15.5 15.9762 16.4738 16.95 17.675 16.95C18.8762 16.95 19.85 15.9762 19.85 14.775V10.425Z" stroke="#FF997A" stroke-width="1.5" stroke-linecap="round" stroke-linejoin="round"/>
<path d="M28.55 4.62495C28.55 3.42373 27.5762 2.44995 26.375 2.44995C25.1737 2.44995 24.2 3.42373 24.2 4.62495V8.97495C24.2 10.1762 25.1737 11.15 26.375 11.15C27.5762 11.15 28.55 10.1762 28.55 8.97495V4.62495Z" stroke="#FF997A" stroke-width="1.5" stroke-linecap="round" stroke-linejoin="round"/>
</svg>
