<svg width="31" height="31" viewBox="0 0 31 31" fill="none" xmlns="http://www.w3.org/2000/svg">
<path d="M20.6786 22.75L10.3214 22.75" stroke="#FF997A" stroke-width="2" stroke-linecap="round"/>
<path d="M29.9577 16.889L29.5467 19.698C28.8277 24.6099 28.4683 27.0658 26.7355 28.5329C25.0026 30 22.4612 30 17.3785 30H14.1161C9.0334 30 6.49203 30 4.75913 28.5329C3.02622 27.0658 2.66681 24.6099 1.94801 19.698L1.5369 16.889C0.977329 13.0652 0.697543 11.1533 1.49458 9.51868C2.29161 7.88402 3.98808 6.89039 7.38103 4.90312L9.42329 3.70696C12.5044 1.90232 14.045 1 15.7473 1C17.4496 1 18.9902 1.90232 22.0713 3.70696L24.1136 4.90312C27.5065 6.89039 29.2031 7.88402 30 9.51868" stroke="#FF997A" stroke-width="2" stroke-linecap="round"/>
</svg>
