<svg width="25" height="25" viewBox="0 0 25 25" fill="none" xmlns="http://www.w3.org/2000/svg">
<g id="Group 51">
<g id="Group 52">
<path id="Vector" d="M15.9498 12.501H1M1 12.501L5.02496 9.05066M1 12.501L5.02496 15.9512" stroke="#283E50" stroke-width="1.5" stroke-linecap="round" stroke-linejoin="round"/>
<path id="Vector_2" d="M9.05225 6.75049C9.06617 4.24899 9.17709 2.89428 10.0607 2.01057C11.0712 1 12.6975 1 15.9502 1H17.1002C20.3528 1 21.9792 1 22.9896 2.01057C24.0001 3.02114 24.0001 4.64762 24.0001 7.90059V17.1014C24.0001 20.3543 24.0001 21.9808 22.9896 22.9914C22.1059 23.8751 20.7514 23.9861 18.2499 24M9.05225 18.2515C9.06617 20.7529 9.17709 22.1076 10.0607 22.9914C10.7982 23.7289 11.8637 23.9282 13.65 23.9821" stroke="#283E50" stroke-width="1.5" stroke-linecap="round"/>
</g>
</g>
</svg>
