<svg width="31" height="31" viewBox="0 0 31 31" fill="none" xmlns="http://www.w3.org/2000/svg">
<path d="M11.875 30C6.74847 30 4.18522 30 2.59261 28.7259C1 27.4518 1 25.4012 1 21.3V9.7C1 5.59878 1 3.54817 2.59261 2.27409C4.18522 1 6.74847 1 11.875 1H19.125C24.2515 1 26.8147 1 28.4074 2.27409C30 3.54817 30 5.59878 30 9.7M19.125 30C24.2515 30 26.8147 30 28.4074 28.7259C30 27.4518 30 25.4012 30 21.3V15.5" stroke="#FF997A" stroke-width="1.5" stroke-linecap="round"/>
<path d="M29.8148 21.3H8.06473C6.37916 21.3 5.53636 21.3 4.84489 21.4482C2.96845 21.8505 1.50279 23.0231 1 24.5241" stroke="#FF997A" stroke-width="1.5"/>
</svg>
