<svg width="27" height="30" viewBox="0 0 27 30" fill="none" xmlns="http://www.w3.org/2000/svg">
<path d="M13.279 6.49962C14.0037 6.48255 14.5766 5.90925 14.5588 5.2191C14.5407 4.52897 13.9389 3.98332 13.2142 4.00038L13.279 6.49962ZM3.81789 14.905H5.13039C5.13039 14.8957 5.13028 14.8863 5.13005 14.8768L3.81789 14.905ZM3.81789 18.7667L3.88631 20.015C4.58365 19.9803 5.13039 19.4317 5.13039 18.7667H3.81789ZM3.81789 23.9167L3.74946 25.165C3.77225 25.1662 3.79507 25.1667 3.81789 25.1667V23.9167ZM9.26595 25.1667C9.99082 25.1667 10.5784 24.607 10.5784 23.9167C10.5784 23.2263 9.99082 22.6667 9.26595 22.6667V25.1667ZM11.9341 5.25C11.9341 5.94035 12.5218 6.5 13.2466 6.5C13.9715 6.5 14.5591 5.94035 14.5591 5.25H11.9341ZM14.5591 1.25C14.5591 0.55965 13.9715 0 13.2466 0C12.5218 0 11.9341 0.55965 11.9341 1.25H14.5591ZM13.279 4.00038C12.5545 3.98332 11.9525 4.52897 11.9345 5.2191C11.9166 5.90925 12.4896 6.48255 13.2142 6.49962L13.279 4.00038ZM22.6754 14.905L21.3631 14.8768C21.3629 14.8863 21.3629 14.8957 21.3629 14.905H22.6754ZM22.6754 18.7667H21.3629C21.3629 19.4317 21.9096 19.9803 22.607 20.015L22.6754 18.7667ZM22.6754 23.9167V25.1667C22.6982 25.1667 22.7209 25.1662 22.7439 25.165L22.6754 23.9167ZM17.2273 22.6667C16.5025 22.6667 15.9148 23.2263 15.9148 23.9167C15.9148 24.607 16.5025 25.1667 17.2273 25.1667V22.6667ZM10.5766 23.9212C10.5793 23.2308 9.99379 22.6692 9.26893 22.6667C8.54406 22.6642 7.95435 23.2218 7.95176 23.9122L10.5766 23.9212ZM10.4296 26.75L11.3876 25.8955L11.3853 25.8933L10.4296 26.75ZM16.0603 26.75L15.1044 25.8933L15.1023 25.8955L16.0603 26.75ZM18.5381 23.9122C18.5355 23.2218 17.9457 22.6642 17.2209 22.6667C16.496 22.6692 15.9105 23.2308 15.9131 23.9212L18.5381 23.9122ZM9.26254 22.6667C8.53765 22.6667 7.95004 23.2263 7.95004 23.9167C7.95004 24.607 8.53765 25.1667 9.26254 25.1667V22.6667ZM17.2273 25.1667C17.9522 25.1667 18.5398 24.607 18.5398 23.9167C18.5398 23.2263 17.9522 22.6667 17.2273 22.6667V25.1667ZM13.2142 4.00038C7.12775 4.1437 2.36714 9.06552 2.50572 14.9332L5.13005 14.8768C5.0226 10.3277 8.70161 6.6074 13.279 6.49962L13.2142 4.00038ZM2.50539 14.905V18.7667H5.13039V14.905H2.50539ZM3.74946 17.5183C1.61962 17.6243 0 19.3313 0 21.3417H2.625C2.625 20.606 3.20852 20.0487 3.88631 20.015L3.74946 17.5183ZM0 21.3417C0 23.352 1.61962 25.059 3.74946 25.165L3.88631 22.6683C3.2085 22.6347 2.625 22.0773 2.625 21.3417H0ZM3.81789 25.1667H9.26595V22.6667H3.81789V25.1667ZM14.5591 5.25V1.25H11.9341V5.25H14.5591ZM13.2142 6.49962C17.7917 6.6074 21.4706 10.3277 21.3631 14.8768L23.9876 14.9332C24.1262 9.06552 19.3655 4.1437 13.279 4.00038L13.2142 6.49962ZM21.3629 14.905V18.7667H23.9879V14.905H21.3629ZM22.607 20.015C23.2848 20.0487 23.8682 20.606 23.8682 21.3417H26.4932C26.4932 19.3313 24.8736 17.6243 22.7439 17.5183L22.607 20.015ZM23.8682 21.3417C23.8682 22.0773 23.2848 22.6347 22.607 22.6683L22.7439 25.165C24.8736 25.059 26.4932 23.352 26.4932 21.3417H23.8682ZM22.6754 22.6667H17.2273V25.1667H22.6754V22.6667ZM7.95176 23.9122C7.94661 25.2845 8.48925 26.6103 9.47382 27.6067L11.3853 25.8933C10.8675 25.3692 10.574 24.6622 10.5766 23.9212L7.95176 23.9122ZM9.47168 27.6045C10.4522 28.6015 11.8139 29.1715 13.2449 29.1715V26.6715C12.5508 26.6715 11.8793 26.3955 11.3876 25.8955L9.47168 27.6045ZM13.2449 29.1715C14.676 29.1715 16.0377 28.6015 17.0182 27.6045L15.1023 25.8955C14.6106 26.3955 13.9389 26.6715 13.2449 26.6715V29.1715ZM17.0159 27.6067C18.0007 26.6103 18.5432 25.2845 18.5381 23.9122L15.9131 23.9212C15.9159 24.6622 15.6224 25.3692 15.1044 25.8933L17.0159 27.6067ZM9.26254 25.1667H17.2273V22.6667H9.26254V25.1667Z" fill="#283E50"/>
</svg>
