<svg width="252" height="252" viewBox="0 0 252 252" fill="none" xmlns="http://www.w3.org/2000/svg">
<g id="Swift Pages 4" opacity="0.93">
<path id="Vector" d="M119.781 84.6589C120.477 84.0893 120.564 83.0786 120.595 82.1809C120.603 81.9998 120.611 81.8213 120.564 81.648C120.501 81.4065 120.335 81.1939 120.157 81.0233C119.39 80.2804 118.201 80.0074 117.183 80.3513C116.167 80.6951 115.385 81.6244 115.219 82.6796C114.986 84.1759 115.907 85.5671 116.629 86.8954C116.996 87.5858 117.324 88.2893 117.597 89.0164C117.419 89.1319 117.167 89.0951 116.988 88.9691C116.807 88.8431 116.689 88.6568 116.574 88.4756C115.61 86.9741 114.626 85.4411 114.148 83.7218C113.907 82.8529 113.804 81.8921 114.164 81.0626C114.665 79.9129 115.923 79.2855 117.151 79.0283C117.918 78.8734 118.716 78.8261 119.474 79.0283C120.228 79.233 120.931 79.7081 121.283 80.4064C121.753 81.3356 121.54 82.4539 121.228 83.4461C121.118 83.7848 120.994 84.1286 120.766 84.4016C120.54 84.6746 120.173 84.8558 119.829 84.7849L119.781 84.6589Z" fill="#ECB394"/>
<path id="Vector_2" d="M121.853 85.1603C121.923 85.5671 121.808 86.0055 121.548 86.3258C121.259 86.6775 120.829 86.8796 120.453 87.1395C120.359 87.2025 120.264 87.2786 120.212 87.381C120.157 87.4834 120.149 87.6146 120.22 87.7091C120.264 87.7643 120.335 87.7958 120.398 87.8273C121.002 88.0845 121.603 88.3365 122.215 88.5938C122.496 88.7119 122.792 88.8353 123.097 88.8038C123.152 88.7959 123.207 88.788 123.246 88.7565C123.294 88.7198 123.309 88.6568 123.325 88.6016C123.433 88.0373 123.042 87.5228 122.816 86.9978C122.698 86.7326 122.622 86.4439 122.59 86.1525C122.567 85.9268 122.567 85.6931 122.472 85.4805C122.378 85.2705 122.144 85.1051 121.923 85.176L121.853 85.1603Z" fill="#ECB394"/>
<path id="Vector_3" d="M117.442 88.7434C117.183 88.8904 116.941 88.4835 116.831 88.3129C116.621 87.9847 116.408 87.6619 116.206 87.3259C115.807 86.6854 115.424 86.0291 115.096 85.3466C114.765 84.6667 114.492 83.9475 114.334 83.1967C114.195 82.5169 114.156 81.7582 114.46 81.1177C115.001 79.9759 116.306 79.4587 117.482 79.2645C118.763 79.044 120.382 79.2776 121.018 80.5691C121.362 81.2726 121.251 82.11 121.062 82.845C120.97 83.2125 120.868 83.6036 120.687 83.9396C120.54 84.2126 120.251 84.5355 119.897 84.4725C119.734 84.441 119.569 84.5197 119.521 84.6825C119.482 84.8321 119.569 85.0342 119.734 85.0579C120.172 85.1287 120.595 84.9791 120.907 84.6667C121.196 84.378 121.354 83.9869 121.485 83.6036C121.745 82.8135 121.939 81.9682 121.824 81.1335C121.713 80.3355 121.275 79.6687 120.627 79.2094C119.952 78.7316 119.107 78.5505 118.285 78.5662C116.823 78.5977 115.148 79.1149 114.235 80.3197C113.153 81.7346 113.702 83.6666 114.334 85.1524C114.71 86.037 115.195 86.8639 115.705 87.6776C115.954 88.0766 116.19 88.4914 116.471 88.8589C116.768 89.25 117.269 89.5387 117.755 89.2579C118.099 89.0794 117.786 88.5465 117.442 88.7434Z" fill="#E6A17E"/>
<path id="Vector_4" d="M119.999 87.9217C120.196 88.1238 120.524 88.2026 120.782 88.3128C121.062 88.4283 121.346 88.5543 121.635 88.6725C121.916 88.788 122.199 88.9297 122.488 89.0242C122.737 89.103 123.042 89.1633 123.294 89.0715C123.598 88.9612 123.661 88.6173 123.645 88.3286C123.63 88.0451 123.535 87.7878 123.42 87.5385C123.199 87.0607 122.942 86.6302 122.895 86.0973C122.863 85.7771 122.847 85.449 122.643 85.1838C122.456 84.9345 122.152 84.8006 121.845 84.8793C121.461 84.9712 121.627 85.5671 122.01 85.4726C122.168 85.4332 122.238 85.7298 122.252 85.8401C122.299 86.121 122.299 86.3966 122.378 86.6696C122.519 87.2025 122.871 87.6461 123.005 88.179C123.034 88.2892 123.013 88.3968 123.029 88.5071C123.029 88.5307 123.021 88.5465 123.013 88.5701C123.034 88.5071 123.065 88.4835 123.097 88.5071C123.097 88.4992 122.934 88.5071 122.91 88.5071C122.637 88.4756 122.362 88.3365 122.112 88.2262C121.824 88.1002 121.524 87.9768 121.236 87.8508C121.086 87.7878 120.931 87.7248 120.782 87.654C120.679 87.6093 120.516 87.5778 120.438 87.4912C120.157 87.2025 119.726 87.6382 119.999 87.9217Z" fill="#E6A17E"/>
<path id="Vector_5" d="M114.781 89.04C115.595 89.4784 116.151 90.237 116.676 90.9799C117.246 91.7831 117.826 92.5575 118.616 93.1691C119.406 93.786 120.312 94.248 121.283 94.5052C121.769 94.6391 122.275 94.7179 122.777 94.7494C123.302 94.7809 123.879 94.8045 124.286 94.4055C124.709 93.9829 124.866 93.3319 124.858 92.7544C124.85 92.1375 124.677 91.5337 124.491 90.9484C124.365 90.573 123.771 90.7357 123.895 91.1111C124.17 91.9406 124.53 93.0904 123.942 93.8805C123.669 94.248 123.144 94.1692 122.737 94.1377C122.283 94.1062 121.839 94.0301 121.409 93.9041C120.532 93.6626 119.695 93.2479 118.983 92.6756C118.264 92.106 117.731 91.3946 117.206 90.6491C116.621 89.8301 116.001 89.0006 115.104 88.5071C114.749 88.3207 114.437 88.851 114.781 89.04Z" fill="#E6A17E"/>
<path id="Vector_6" d="M122.918 94.9279C123.113 95.5238 123.105 96.1643 123.073 96.789C123.042 97.3691 122.966 97.9939 122.551 98.3929C122.488 98.4559 122.401 98.511 122.315 98.4716C122.252 98.4401 122.223 98.3693 122.207 98.2984C122.136 97.9151 122.346 97.5476 122.464 97.1723C122.674 96.5003 122.598 95.781 122.643 95.0775C122.643 95.0145 122.651 94.9515 122.69 94.9043C122.729 94.857 122.808 94.8413 122.847 94.8885" fill="#E0C9BA"/>
<path id="Vector_7" d="M77.0962 162.9L76.9571 163.322C76.9256 163.299 76.902 163.283 76.8705 163.259C76.7287 162.572 76.5817 161.876 76.44 161.186C76.4872 161.766 76.5345 162.335 76.5739 162.915C76.4321 162.695 76.3219 162.438 76.2536 162.18C76.1276 161.726 76.0882 161.249 76.0016 160.789C75.7207 159.301 74.9542 157.949 74.8519 156.44C74.8046 155.768 74.8912 155.096 74.9779 154.421C75.033 153.975 75.0934 153.531 75.1485 153.077C75.4084 155.891 75.9386 158.676 76.7209 161.359C76.8705 161.868 77.028 162.367 77.0962 162.9Z" fill="#E6A17E"/>
<g id="Clip path group">
<mask id="mask0_357_573" style="mask-type:luminance" maskUnits="userSpaceOnUse" x="140" y="66" width="69" height="21">
<g id="16311265ea">
<path id="Vector_8" d="M140.448 66.528H208.753V86.016H140.448V66.528Z" fill="white"/>
</g>
</mask>
<g mask="url(#mask0_357_573)">
<g id="Group">
<path id="Vector_9" d="M208.753 70.6834L207.157 74.1484L180.542 85.7929L143.351 77.4795L141.115 76.3534L141.952 72.7414C141.952 72.7414 144.299 67.7512 147.57 67.0162C147.57 67.0162 174.723 71.0351 182.178 78.3641C182.178 78.3641 188.352 70.9721 202.471 68.0085L208.753 70.6834Z" fill="#D2D2CD"/>
</g>
</g>
</g>
<path id="Vector_10" d="M180.755 129.974L180.668 129.888L181.818 128.793C181.944 128.675 182.07 128.559 182.201 128.449C182.577 128.16 183.023 127.971 183.485 127.908L183.501 128.034C183.054 128.097 182.632 128.268 182.272 128.552C182.138 128.651 182.015 128.769 181.897 128.888L180.755 129.974Z" fill="#E6A17E"/>
<path id="Vector_11" d="M175.13 131.709L175.051 131.615C175.741 131.006 176.576 130.623 177.39 130.247C177.587 130.153 177.86 130.029 178.127 130.09L178.096 130.208C177.883 130.161 177.681 130.247 177.445 130.358C176.631 130.733 175.802 131.116 175.13 131.709Z" fill="#E6A17E"/>
<path id="Vector_12" d="M167.761 137.521L167.667 137.442C168.299 136.66 169.129 136.035 170.053 135.636L170.1 135.747C169.192 136.146 168.386 136.755 167.761 137.521Z" fill="#E6A17E"/>
<path id="Vector_13" d="M184.322 139.201L184.267 139.094C184.947 138.758 185.519 138.248 185.934 137.608L186.036 137.676C185.622 138.335 185.026 138.857 184.322 139.201Z" fill="#E6A17E"/>
<path id="Vector_14" d="M179.463 140.251L179.878 139.891L179.96 139.986L179.545 140.346L179.463 140.251Z" fill="#E6A17E"/>
<path id="Vector_15" d="M173.358 143.031L174.237 142.317L174.316 142.414L173.436 143.128L173.358 143.031Z" fill="#E6A17E"/>
<path id="Vector_16" d="M164.826 145.585L164.818 145.459C165.798 145.38 166.766 145.21 167.706 144.942L167.737 145.06C166.79 145.325 165.805 145.506 164.826 145.585Z" fill="#E6A17E"/>
<path id="Vector_17" d="M182.343 137.114C181.332 132.452 179.143 128.074 176.022 124.467L176.116 124.391C179.253 128.019 181.443 132.405 182.461 137.091L182.343 137.114Z" fill="#E6A17E"/>
<path id="Vector_18" d="M180.684 121.91C180.526 121.997 180.372 122.084 180.214 122.168C180.083 122.246 179.941 122.317 179.784 122.333C179.589 122.357 179.392 122.278 179.214 122.191C178.048 121.653 177.014 120.824 176.24 119.808C176.153 119.697 176.077 119.579 176.006 119.464C176.552 118.978 177.282 118.75 177.946 119.057L178.526 119.18C179.285 120.065 180.004 120.973 180.684 121.91Z" fill="#E6A17E"/>
<path id="Vector_19" d="M173.565 121.385C173.205 121.645 172.743 121.792 172.305 121.918C172.008 122.005 171.712 122.083 171.405 122.099C170.796 122.12 170.195 121.839 169.725 121.44C169.278 121.065 168.935 120.582 168.606 120.096C169.152 119.33 170.021 118.844 170.922 119.101C171.507 119.275 171.977 119.721 172.407 120.159C172.799 120.558 173.182 120.973 173.565 121.385Z" fill="#E6A17E"/>
<path id="Vector_20" d="M165.75 128.635C165.451 128.987 165.023 129.066 164.624 129.105C164.241 129.145 163.85 129.16 163.472 129.105C162.018 128.919 160.726 127.659 160.133 125.968C161.057 124.672 162.784 124.359 164.068 125.063C164.842 125.485 165.491 126.157 166.063 126.94C166.079 127.034 166.094 127.126 166.102 127.221C166.142 127.73 166.047 128.284 165.75 128.635Z" fill="#E6A17E"/>
<path id="Vector_21" d="M162.096 156.033C161.571 154.749 161.025 153.413 160.805 152.014C160.634 150.911 160.595 149.292 161.424 147.885C161.579 147.625 161.76 147.367 161.939 147.126C162.298 146.632 162.669 146.115 162.8 145.522C163.044 144.388 162.369 143.301 161.658 142.275L157.261 135.925L157.363 135.854L161.76 142.207C162.48 143.254 163.167 144.372 162.918 145.546C162.784 146.163 162.409 146.688 162.041 147.194C161.871 147.438 161.682 147.688 161.532 147.945C160.718 149.323 160.758 150.911 160.931 151.998C161.149 153.389 161.689 154.712 162.214 155.985L162.096 156.033Z" fill="#E6A17E"/>
<path id="Vector_22" d="M87.8142 104.22C87.9402 104.612 87.9638 105.011 87.9402 105.41C87.9165 105.809 87.8457 106.197 87.7302 106.572C87.612 106.95 87.4467 107.31 87.2367 107.646C87.024 107.982 86.7747 108.294 86.4465 108.544C86.5095 108.137 86.6093 107.769 86.7038 107.41C86.8062 107.05 86.9164 106.698 87.024 106.347C87.1343 105.995 87.2524 105.651 87.3758 105.299C87.5018 104.94 87.6278 104.588 87.8142 104.22Z" fill="#574539"/>
<path id="Vector_23" d="M91.3658 57.0203C90.3263 59.2253 89.1765 61.3778 87.9008 63.4568C87.3836 64.302 86.8376 65.1473 86.0711 65.7642C85.4595 66.2577 84.7245 66.5858 84.0053 66.9139C82.95 67.3917 81.8921 67.8615 80.829 68.3367C80.7503 68.2448 80.6636 68.1424 80.5954 68.0479C78.7789 65.7248 77.1908 63.2232 75.8599 60.5877C75.7601 60.375 75.6499 60.1493 75.6735 59.9235C75.7208 59.5167 76.1276 59.2725 76.4636 59.0468C76.7603 58.842 77.0201 58.6005 77.2616 58.3433C77.5819 58.3118 77.9021 58.3354 78.2093 58.4194C78.3563 58.4588 78.498 58.5139 78.6161 58.6163C78.9285 58.8814 78.9285 59.3591 78.9206 59.7739C78.897 60.9552 79.023 62.1443 79.296 63.294C79.4141 63.7613 79.5533 64.239 79.8263 64.638C80.5875 65.7327 82.2045 65.961 83.4488 65.4833C84.7009 65.0055 85.6564 63.9897 86.5174 62.9712C87.7511 61.5169 88.9035 59.9603 89.6621 58.2094C90.0139 57.3956 90.279 56.5504 90.5993 55.7235C91.0534 54.558 91.6178 53.4319 92.2819 52.3661L92.3921 52.6103C92.6415 54.1197 92.0246 55.629 91.3658 57.0203Z" fill="#9D9788"/>
<g id="Group 121">
<g id="Clip path group_2">
<mask id="mask1_357_573" style="mask-type:luminance" maskUnits="userSpaceOnUse" x="43" y="50" width="150" height="174">
<g id="852c145824">
<path id="Vector_24" d="M43.4411 50.4H192.192V223.104H43.4411V50.4Z" fill="white"/>
</g>
</mask>
<g mask="url(#mask1_357_573)">
<g id="Group_2">
<path id="Vector_25" d="M62.664 223.08C70.5101 203.732 77.8942 183.577 76.5739 162.915C76.5345 162.335 76.4951 161.766 76.44 161.186C76.5817 161.876 76.7287 162.572 76.8705 163.259C77.0726 164.252 77.2852 165.246 77.4874 166.239C78.8655 172.848 80.2331 179.456 81.6034 186.057C82.1992 188.919 82.8082 191.83 84.2231 194.387C84.3412 194.604 84.4672 194.817 84.5985 195.027C85.3676 196.271 86.2811 197.413 87.1894 198.563C88.1659 199.791 89.1214 201.033 89.8642 202.419C90.4759 203.561 90.9195 204.766 91.2502 206.007C91.3736 206.493 91.4839 206.987 91.5784 207.485C91.9616 209.52 92.0876 211.63 92.1322 213.712C92.2031 216.841 92.1244 219.967 91.9065 223.088H191.998C191.208 222.65 190.417 222.214 189.633 221.768C180.965 216.864 172.838 211.005 165.451 204.327C162.855 201.981 160.267 199.4 159.13 196.09C158.138 193.197 158.364 190.053 158.608 187.002C159.492 175.718 160.374 164.433 161.259 153.148C161.479 150.339 161.697 147.538 161.915 144.732L162.393 145.029C163.818 142.535 163.981 139.54 164.178 136.668C164.632 129.935 165.475 123.233 166.687 116.592C167.338 113.048 168.097 109.515 168.449 105.924C168.871 101.624 168.714 97.2826 168.551 92.9644C168.339 87.4126 168.129 81.8607 167.924 76.3062C167.877 74.9937 167.824 73.6549 167.378 72.4133C166.351 69.5494 163.511 67.7907 160.773 66.4598C158.802 65.4991 156.652 64.5199 155.555 62.6194C154.492 60.7662 154.681 58.4588 153.998 56.4349C152.607 52.3137 147.646 50.1848 143.359 50.9041C139.065 51.6154 135.458 54.5581 132.657 57.8892C128.331 63.0499 125.475 69.4234 124.506 76.0804C124.333 77.2774 123.832 78.8341 122.629 78.7711C122.065 78.7474 121.603 78.3327 121.149 78.0046C119.311 76.6658 116.744 76.4086 114.673 77.3404C112.599 78.2697 111.098 80.3671 110.877 82.6272C110.565 85.8559 112.639 88.7723 114.61 91.3553C111.988 91.8619 109.25 91.7701 106.669 91.0718L107.116 91.5417C109.609 95.5921 106.433 101.139 102.107 103.126C97.7812 105.102 92.8069 104.703 88.0425 104.837C86.6644 104.877 85.2967 104.963 83.9265 105.102C83.3017 105.165 82.6744 105.236 82.0575 105.323C78.7159 105.769 75.4162 106.496 72.2085 107.512C68.5781 108.654 64.9714 110.219 62.2414 112.862C58.9864 116.007 57.2644 120.385 55.8889 124.688C54.3244 129.567 53.0801 134.597 52.9226 139.71C52.5787 151.153 57.6949 162.595 55.3639 173.809C54.621 177.384 53.151 180.763 52.1167 184.275C49.9511 191.657 49.8015 199.455 49.6702 207.149C49.56 213.147 48.7462 220.337 43.4411 223.073H62.664V223.08Z" fill="#FCCAAC"/>
</g>
</g>
</g>
<g id="Clip path group_3">
<mask id="mask2_357_573" style="mask-type:luminance" maskUnits="userSpaceOnUse" x="83" y="29" width="89" height="104">
<g id="cb3c8f8f57">
<path id="Vector_26" d="M83.328 29.064H171.36V132.384H83.328V29.064Z" fill="white"/>
</g>
</mask>
<g mask="url(#mask2_357_573)">
<g id="Group_3">
<path id="Vector_27" d="M151.512 71.4893C150.455 66.7643 149.407 62.0341 148.352 57.3091C146.013 63.2153 142.055 68.4706 137.022 72.3503C137.946 70.1453 138.878 67.9298 139.8 65.7248C138.681 67.2342 137.571 68.7436 136.453 70.2608C136.789 68.6806 137.133 67.1108 137.469 65.5306C134.458 69.371 131.219 73.0302 127.777 76.4873C126.798 77.4638 125.774 78.4508 124.491 78.9653C121.643 80.1072 118.474 78.653 115.752 77.2381C115.392 77.9967 115.408 78.9102 115.784 79.661C115.713 78.5585 115.65 77.456 115.579 76.3535C114.705 80.3041 115.109 84.5356 116.713 88.25C115.728 86.9033 114.749 85.5515 113.765 84.2048C114.101 85.8008 114.437 87.389 114.773 88.985C114.413 88.6805 114.054 88.3733 113.694 88.0688C114.555 91.0561 116.393 93.647 117.755 96.4373C119.107 99.2303 119.984 102.546 118.787 105.417C118.577 103.617 117.81 101.889 116.621 100.527C117.613 106.675 118.608 112.823 119.6 118.962C120.054 121.753 120.086 125.391 117.487 126.533C118.044 124.546 117.894 122.38 117.083 120.488C117.474 122.349 116.839 124.391 115.455 125.688C113.295 127.722 109.526 128.074 108.373 130.812C108.843 129.504 109.313 128.197 109.783 126.893C109.032 126.672 108.195 126.814 107.554 127.26C107.531 126.236 107.515 125.202 107.491 124.178C105.738 125.814 104.69 128.176 104.651 130.568C104.008 129.801 103.525 128.911 103.226 127.964C102.743 129.434 102.265 130.896 101.779 132.366C100.464 131.061 99.1516 129.746 97.8364 128.441C98.7368 129.607 97.6632 131.484 96.2168 131.741C94.7704 131.998 93.3372 131.1 92.4158 129.959C90.2318 127.268 90.1242 123.467 90.468 120.018C90.615 118.532 90.3735 116.458 88.8799 116.374C89.8249 118.125 89.4889 120.472 88.0977 121.895C88.5649 117.453 83.5039 114.012 83.5275 109.554C83.5433 106.848 85.428 104.533 86.1578 101.921C87.675 96.4452 84.147 89.6963 87.7827 85.3336C87.8063 86.5358 88.1213 87.7407 88.6909 88.8038C89.1765 85.31 89.4102 81.7741 89.3865 78.2382C88.7775 79.8342 88.1659 81.4302 87.5569 83.0262C88.3155 77.1042 90.3342 71.3555 93.4474 66.2656C92.9224 66.8273 92.4001 67.3996 91.875 67.9613C91.6887 65.3022 93.6128 63.0263 95.2561 60.9237C96.8967 58.8185 98.4244 56.0675 97.3744 53.6105C96.6 54.8862 95.8336 56.1672 95.0592 57.443C98.0701 51.2033 101.968 45.3916 106.591 40.2282C105.801 40.643 105.011 41.0498 104.22 41.4646C107.693 39.0496 110.486 35.6555 112.193 31.7836C111.324 32.3296 110.463 32.8782 109.594 33.4242C111.605 31.823 113.836 30.1403 116.4 30.164C118.309 30.1876 120.062 31.1562 121.908 31.6497C124.968 32.4635 128.378 31.8833 130.99 30.0931C130.279 29.7571 129.56 29.4132 128.848 29.0772C137.078 29.4998 145.121 32.9885 151.058 38.7031C150.494 37.367 149.72 36.1227 148.767 35.0202C151.245 35.9678 153.263 38.0626 154.116 40.5826C154.389 41.4016 154.626 42.3571 155.384 42.7797C155.894 43.0606 156.503 43.0212 157.075 43.0606C160.642 43.3178 163.02 46.7513 164.771 49.8725C167.039 53.915 169.2 58.0756 170.334 62.567C171.468 67.0557 171.507 71.9592 169.614 76.1907C169.278 74.6813 168.95 73.1641 168.614 71.6547C168.394 73.6628 167.808 75.6421 166.884 77.4402C166.016 75.6578 165.155 73.8755 164.286 72.0826C159.821 72.4658 155.298 72.248 150.893 71.4263" fill="#5B5A5A"/>
</g>
</g>
</g>
<path id="Vector_28" d="M120.994 82.2281C120.711 82.3751 120.406 82.4775 120.094 82.5484C119.789 82.6114 119.474 82.6192 119.17 82.6665C118.865 82.7111 118.584 82.845 118.372 83.0707C118.177 83.2755 118.059 83.5249 117.886 83.7454C117.708 83.9711 117.435 84.0814 117.238 84.2914C117.028 84.5276 116.925 84.8242 116.894 85.1287C116.862 85.4569 116.941 85.7929 117.051 86.0974C117.159 86.4124 117.285 86.7326 117.482 87.0056C117.692 87.3022 117.996 87.5936 118.387 87.5542C118.747 87.5149 119.062 87.1395 118.928 86.7799C118.873 86.6224 118.716 86.52 118.553 86.5672C118.403 86.6066 118.277 86.7877 118.34 86.9426C118.372 87.0214 118.348 86.9269 118.356 86.9269C118.356 86.9269 118.324 86.9505 118.317 86.9505C118.248 86.9347 118.193 86.8875 118.138 86.835C117.965 86.6696 117.857 86.436 117.763 86.2234C117.589 85.8165 117.372 85.2705 117.605 84.84C117.723 84.6274 117.933 84.5276 118.114 84.3859C118.293 84.2441 118.427 84.0499 118.553 83.8609C118.655 83.706 118.747 83.5327 118.905 83.4172C119.083 83.2834 119.327 83.2597 119.545 83.244C120.165 83.1889 120.742 83.0576 121.299 82.7662C121.658 82.5799 121.346 82.047 120.994 82.2281Z" fill="#E6A17E"/>
<path id="Vector_29" d="M120.125 93.7939C120.414 93.8569 120.687 93.9829 120.923 94.1535C120.656 94.4501 120.603 94.8806 120.587 95.2718C120.532 96.3585 120.656 97.4636 120.939 98.5189C121.603 97.8915 122.01 97.0174 122.144 96.117C122.267 95.2088 122.128 94.2795 121.784 93.4343C121.721 93.2794 121.65 93.1219 121.65 92.9565C121.65 92.7938 121.729 92.6126 121.884 92.5496L121.923 92.5129C123.16 93.0668 123.819 94.458 123.958 95.7968C124.013 96.3506 123.997 96.9386 123.771 97.4558C123.365 98.3693 122.409 98.8785 121.517 99.3248C121.267 99.4481 121.002 99.5741 120.719 99.5584C120.485 99.5426 120.257 99.4245 120.086 99.2696C119.718 98.9415 119.514 98.4638 119.438 97.9703C119.359 97.4846 119.39 96.9859 119.43 96.4924C119.461 96.0225 119.498 95.5474 119.529 95.0775C119.561 94.6234 119.624 94.1063 119.984 93.8254L120.125 93.7939Z" fill="#F8E3D4"/>
<path id="Vector_30" d="M136.773 110.069C134.481 109.381 132.297 108.334 130.334 106.964C128.62 105.777 126.609 104.213 126.588 101.929C126.572 100.59 126.987 99.2382 126.415 97.9545C126.344 97.8075 126.126 97.7682 125.992 97.8469C125.835 97.9388 125.811 98.112 125.882 98.2669C126.118 98.7919 126.134 99.3694 126.11 99.9338C126.079 100.535 125.992 101.139 125.976 101.748C125.968 102.328 126.039 102.913 126.241 103.454C126.446 103.984 126.735 104.462 127.079 104.916C127.785 105.822 128.698 106.551 129.63 107.223C130.615 107.943 131.657 108.575 132.744 109.124C133.98 109.749 135.279 110.266 136.608 110.665C136.983 110.772 137.148 110.179 136.773 110.069Z" fill="#E6A17E"/>
<path id="Vector_31" d="M84.231 194.386C84.3491 194.604 84.4751 194.817 84.6064 195.027C85.3729 196.271 86.289 197.413 87.1972 198.563C88.1737 199.791 89.1292 201.033 89.8721 202.419C90.4837 203.561 90.9274 204.766 91.2581 206.007C91.3815 206.493 91.4917 206.986 91.5862 207.485C91.9695 209.52 92.0955 211.63 92.1401 213.712C92.211 216.841 92.1322 219.967 91.9144 223.088H192.006C191.215 222.65 190.423 222.214 189.641 221.768C180.973 216.864 172.846 211.005 165.459 204.327C162.863 201.981 160.275 199.4 159.138 196.09C158.146 193.197 158.371 190.053 158.616 187.002C159.5 175.717 160.382 164.433 161.267 153.148C160.813 152.56 160.335 151.998 159.86 151.441C158.264 149.565 156.66 147.696 155.064 145.827C154.962 142.761 154.859 139.702 154.749 136.636C154.72 135.731 154.681 134.815 154.649 133.906C154.641 133.657 154.594 133.439 154.421 133.234C154.274 133.064 154.022 132.922 153.788 132.922C153.547 132.914 153.295 132.977 153.116 133.148C152.951 133.305 152.785 133.539 152.801 133.783C152.927 137.004 153.037 140.22 153.148 143.44C153.169 144.144 153.192 144.842 153.216 145.546C142.797 156.534 131.578 166.771 119.671 176.132C119.122 176.563 118.521 177.009 117.834 177.033C117.167 177.056 116.566 176.681 116.001 176.313C103.312 168.1 90.216 159.482 81.7924 147.039C81.7687 144.49 81.564 141.955 81.4774 139.406C81.3855 136.589 81.5246 133.791 81.7372 130.982C82.1599 125.336 82.6822 119.697 83.16 114.059C83.4094 111.079 83.6692 108.09 83.9186 105.11C83.2939 105.173 82.6665 105.244 82.0496 105.331C81.5955 110.688 81.1414 116.051 80.6794 121.417C80.4457 124.225 80.1964 127.026 79.968 129.832C79.7422 132.641 79.5454 135.455 79.6005 138.28C79.6635 141.369 79.9522 144.443 79.9444 147.53C79.9444 147.751 80.0152 147.969 80.1334 148.142C79.968 149.221 79.7265 150.292 79.3747 151.355C78.3562 154.468 78.162 157.87 77.8627 161.117C77.7079 162.821 77.574 164.535 77.4795 166.246C78.8576 172.856 80.2252 179.463 81.5955 186.065C82.2045 188.919 82.8161 191.83 84.231 194.386Z" fill="#283E50"/>
<g id="Clip path group_4">
<mask id="mask3_357_573" style="mask-type:luminance" maskUnits="userSpaceOnUse" x="130" y="70" width="79" height="68">
<g id="0ff5c59bfa">
<path id="Vector_32" d="M130.368 70.56H208.753V137.088H130.368V70.56Z" fill="white"/>
</g>
</mask>
<g mask="url(#mask3_357_573)">
<g id="Group_4">
<path id="Vector_33" d="M131.029 131.859L163.973 136.917L194.602 126.328L208.753 70.6833C208.753 70.6833 192.365 73.584 182.773 80.1543L141.795 73.4133L131.029 131.859Z" fill="#FF997A"/>
</g>
</g>
</g>
<path id="Vector_34" d="M179.526 210.223C178.602 212.155 177.61 214.174 175.872 215.423C173.447 217.169 170.171 217.003 167.205 216.652C165.96 216.505 164.669 216.324 163.621 215.644C162.464 214.901 161.737 213.664 161.073 212.467C159.773 210.129 158.529 207.737 157.707 205.194C155.103 197.101 156.957 188.317 159.046 180.075C161.125 171.83 163.443 163.259 161.682 154.946C161.172 152.544 160.359 149.916 161.508 147.743C161.97 146.874 162.729 146.107 162.784 145.131C162.823 144.325 162.369 143.598 161.923 142.926C160.445 140.666 158.967 138.406 157.489 136.146C159.03 136.277 160.579 136.411 162.128 136.542C162.76 136.597 163.411 136.66 163.981 136.933C164.724 137.293 165.265 137.975 165.766 138.624C167.134 140.398 168.504 142.175 169.872 143.95C167.417 139.366 164.553 135.012 161.322 130.943C160.267 129.615 159.106 127.956 159.718 126.375C159.82 126.102 159.975 125.869 160.164 125.664C161.065 124.672 162.784 124.459 164.076 125.023C164.858 125.359 165.514 125.892 166.094 126.509C166.68 127.126 167.197 127.83 167.69 128.528C170.654 132.649 173.612 136.77 176.576 140.884C175.311 135.699 173.079 130.749 170.029 126.367C169.105 125.047 168.073 123.661 167.995 122.052C167.963 121.369 168.199 120.666 168.606 120.112C169.152 119.346 170.021 118.86 170.922 119.117C171.507 119.29 171.977 119.737 172.407 120.175C172.806 120.582 173.19 120.986 173.573 121.409C174.497 122.435 175.363 123.498 176.185 124.609C175.576 123.577 175.027 122.475 175.106 121.293C175.145 120.611 175.513 119.939 176.022 119.493C176.568 119.01 177.298 118.781 177.962 119.086L178.539 119.212C179.301 120.088 180.02 121.002 180.692 121.942C183.603 125.968 185.753 130.544 186.997 135.355C187.286 136.474 187.53 137.647 187.262 138.773C186.918 140.227 185.808 141.346 184.871 142.495C181.616 146.475 180.043 151.63 179.629 156.76C179.214 161.884 179.894 167.037 180.715 172.113C181.435 176.555 182.272 180.981 183.22 185.385C183.837 188.247 184.501 191.126 184.501 194.058C184.485 199.72 181.983 205.078 179.526 210.223Z" fill="#F5BA96"/>
<path id="Vector_35" d="M119.154 188.286C115.516 183.102 111.074 178.487 106.034 174.662C103.126 172.457 100.005 170.494 97.3508 167.976C98.2591 168.835 98.8313 170.055 98.8917 171.308C98.939 172.121 98.792 172.964 99.0728 173.723C99.2461 174.185 99.5663 174.576 99.9023 174.935C104.354 179.715 111.841 180.897 115.907 185.994C116.862 187.191 117.826 188.709 119.351 188.803" fill="#EACFB2"/>
<path id="Vector_36" d="M150.315 157.699C149.297 158.427 149.173 159.873 149.273 161.117C149.376 162.359 149.572 163.705 148.929 164.776C148.507 165.48 147.78 165.934 147.076 166.365C140.739 170.166 133.213 174.457 125.929 176.077C124.254 176.452 123.456 175.875 125.084 174.772C126.672 173.694 128.536 172.903 130.192 171.932C133.51 169.992 136.757 167.929 139.902 165.724C143.493 163.212 146.966 160.537 150.315 157.699Z" fill="#EACFB2"/>
<path id="Vector_37" d="M87.2524 181.309C88.5571 181.498 90.9589 184.133 92.1166 184.923C93.9173 186.152 95.7784 187.294 97.6868 188.357C101.107 190.257 105.417 192.877 109.305 193.47C106.748 190.467 102.451 187.911 99.0728 185.861C95.4424 183.671 91.4839 181.928 87.2524 181.309Z" fill="#EACFB2"/>
<path id="Vector_38" d="M108.609 197.452C105.228 200.266 99.8551 201.285 95.5606 200.988C92.6416 200.784 89.7777 199.938 87.1973 198.563C86.2891 197.413 85.3677 196.271 84.6064 195.027C86.0633 195.52 87.4467 196.528 88.8327 197.271C91.9302 198.946 95.5684 199.4 99.0728 199.148C102.162 198.938 105.612 197.303 108.609 197.452Z" fill="#EACFB2"/>
<path id="Vector_39" d="M91.5862 207.477C94.3871 207.454 97.1959 206.611 99.7054 205.32C101.984 204.154 104.493 202.621 106.278 200.784C104.22 200.728 101.333 203.427 99.33 204.217C96.7575 205.233 94.0196 205.845 91.2502 205.999L91.5862 207.477Z" fill="#EACFB2"/>
<path id="Vector_40" d="M123.543 199.172C121.102 198.993 118.498 198.539 116.736 196.833C120.461 198.579 124.819 197.844 128.864 197.069C133.917 196.098 138.986 195.114 143.916 193.604C148.984 192.055 153.161 189.53 157.81 187.168C158.004 188.373 153.654 190.866 152.631 191.546C150.588 192.885 148.444 194.058 146.223 195.066C141.732 197.101 136.928 198.437 132.024 198.993C129.208 199.314 126.367 199.377 123.543 199.172Z" fill="#EACFB2"/>
<path id="Vector_41" d="M119.844 183.319C119.054 183.96 118.779 185.314 119.553 185.963C120.094 186.417 120.892 186.346 121.587 186.236C123.779 185.884 125.929 185.283 128.042 184.627C132.985 183.086 137.813 181.17 142.475 178.917C144.808 177.791 147.381 176.187 147.693 173.615C139.871 179.127 130.733 182.75 121.259 184.094C123.183 182.537 121.149 182.256 119.844 183.319Z" fill="#EACFB2"/>
<path id="Vector_42" d="M125.562 186.911C124.63 187.958 123.645 189.123 123.551 190.523C123.519 191.008 123.551 191.586 123.16 191.869C122.997 191.985 122.8 192.016 122.606 192.048C122.002 192.15 119.193 193.027 118.731 192.696C117.949 192.142 119.28 191.195 119.695 190.851C120.603 190.092 121.548 189.389 122.535 188.732C123.396 188.144 124.858 187.646 125.562 186.911Z" fill="#EACFB2"/>
<path id="Vector_43" d="M111.801 186.816C110.486 185.816 109.008 185.057 107.531 184.307C109.195 186.002 110.925 187.785 111.605 190.068C111.794 190.696 111.988 191.641 112.678 191.914C113.342 192.182 114.335 191.664 114.594 191C115.172 189.507 112.802 187.583 111.801 186.816Z" fill="#EACFB2"/>
<path id="Vector_44" d="M147.459 216.972C145.934 218.006 144.236 219.358 144.307 221.203C144.299 220.97 150.063 218.413 150.659 218.053C152.817 216.754 154.906 215.237 156.613 213.368C158.857 210.919 157.308 210.294 154.922 211.914C152.434 213.601 149.948 215.284 147.459 216.972Z" fill="#EACFB2"/>
<path id="Vector_45" d="M150 223.08C151.943 221.954 153.78 220.65 155.471 219.172C156.308 218.437 157.114 217.67 157.881 216.856C158.442 216.253 159.789 214.735 158.177 215.494C155.846 216.589 153.607 218.825 151.512 220.342C150.26 221.251 149.008 222.167 147.764 223.072H150V223.08Z" fill="#EACFB2"/>
<path id="Vector_46" d="M149.118 46.2289C148.163 47.838 147.037 49.3474 145.785 50.757C145.472 51.1009 145.152 51.4526 144.832 51.7886L143.829 52.7809C143.485 53.1011 143.133 53.4161 142.789 53.7364L141.708 54.6499C140.246 55.839 138.681 56.8943 137.046 57.8261C135.411 58.7501 133.699 59.5403 131.914 60.1335C133.573 59.2568 135.185 58.3354 136.741 57.3326C138.298 56.3325 139.8 55.2379 141.241 54.0803L142.312 53.1956C142.656 52.8911 142.999 52.5788 143.351 52.2821L144.37 51.3345C144.698 51.0064 145.026 50.6861 145.362 50.3659C146.677 49.0508 147.921 47.6595 149.118 46.2289Z" fill="#574539"/>
<path id="Vector_47" d="M148.336 51.3424C146.732 53.1563 145.002 54.8625 143.212 56.49C142.758 56.8943 142.304 57.2933 141.85 57.6923L140.459 58.8657C139.989 59.2489 139.511 59.6243 139.041 60.0075L137.603 61.1179C135.663 62.5748 133.66 63.9424 131.594 65.2182C129.528 66.4913 127.407 67.6647 125.218 68.7042C127.26 67.3995 129.287 66.0923 131.282 64.7325C133.277 63.378 135.232 61.971 137.164 60.5247L138.603 59.4379C139.08 59.0704 139.55 58.695 140.028 58.3275L141.443 57.2014C141.905 56.8182 142.375 56.4349 142.845 56.0595C144.69 54.5265 146.512 52.9384 148.336 51.3424Z" fill="#574539"/>
<path id="Vector_48" d="M140.894 45.1946C139.409 47.1581 137.805 49.035 136.13 50.8489C135.71 51.303 135.287 51.7493 134.865 52.1955L133.565 53.5159C133.127 53.9543 132.681 54.3769 132.242 54.8074L130.898 56.0831C129.082 57.7553 127.205 59.3591 125.265 60.8843C123.325 62.4094 121.33 63.8558 119.249 65.1866C121.141 63.6143 123.034 62.0419 124.898 60.438C126.759 58.8341 128.588 57.2014 130.397 55.5424L131.744 54.2903C132.187 53.8676 132.626 53.4398 133.072 53.025L134.395 51.7493C134.825 51.3188 135.272 50.8883 135.71 50.4578C137.461 48.7226 139.175 46.9639 140.894 45.1946Z" fill="#574539"/>
<path id="Vector_49" d="M159.453 48.4575C160.603 49.56 161.65 50.7728 162.606 52.0538C163.081 52.6969 163.527 53.361 163.958 54.033C164.388 54.705 164.779 55.4085 165.17 56.1068C165.921 57.5216 166.58 58.9838 167.118 60.4853C167.244 60.8685 167.386 61.236 167.501 61.6193C167.619 62.0025 167.73 62.3936 167.816 62.7848C167.892 63.1838 167.948 63.5828 167.963 63.9896C167.971 64.3965 167.932 64.8034 167.829 65.1866C167.845 64.7876 167.824 64.3965 167.761 64.0054C167.69 63.6221 167.596 63.2468 167.47 62.8714C167.228 62.1285 166.9 61.4171 166.588 60.6874C165.953 59.241 165.257 57.834 164.522 56.4428C164.154 55.7471 163.771 55.0568 163.364 54.3848C162.973 53.697 162.551 53.0408 162.136 52.3661C161.275 51.0615 160.374 49.7621 159.453 48.4575Z" fill="#574539"/>
<path id="Vector_50" d="M160.29 56.4191C161.157 57.0754 161.915 57.8734 162.59 58.7501C163.254 59.6164 163.826 60.5719 164.286 61.5641C164.748 62.5669 165.099 63.6143 165.336 64.6853C165.561 65.7563 165.672 66.8509 165.609 67.9455C165.367 66.8824 165.099 65.8508 164.771 64.8349C164.443 63.8243 164.06 62.832 163.622 61.8686C163.175 60.9079 162.677 59.976 162.12 59.0704C161.556 58.1621 160.939 57.2933 160.29 56.4191Z" fill="#574539"/>
<path id="Vector_51" d="M156.096 59.1412C156.369 59.5009 156.565 59.892 156.744 60.2831C156.925 60.6742 157.075 61.0706 157.198 61.4775C157.324 61.8844 157.426 62.2991 157.497 62.7217C157.566 63.1444 157.613 63.5749 157.597 64.029C157.324 63.6694 157.122 63.2782 156.941 62.8871C156.76 62.496 156.613 62.097 156.487 61.6822C156.361 61.2754 156.261 60.8606 156.19 60.438C156.127 60.0232 156.08 59.5927 156.096 59.1412Z" fill="#574539"/>
<path id="Vector_52" d="M111.604 82.5563C111.106 82.9001 110.683 83.3385 110.352 83.8373C110.024 84.3386 109.783 84.8794 109.609 85.449C109.431 86.0134 109.305 86.5988 109.226 87.1868C109.15 87.7721 109.087 88.3733 109.063 88.9691C109.024 90.1661 108.993 91.3789 108.993 92.589C108.993 93.7939 109 95.0066 109.048 96.2115C109.087 97.4164 109.158 98.6186 109.218 99.8314C109.266 101.044 109.313 102.281 109.187 103.509C109.126 104.118 109.04 104.735 108.89 105.339C108.743 105.94 108.546 106.528 108.289 107.09C107.78 108.216 107.021 109.239 106.034 109.953C106.919 109.116 107.562 108.077 107.953 106.95C108.36 105.83 108.554 104.651 108.609 103.462C108.641 102.866 108.633 102.273 108.617 101.669C108.601 101.068 108.562 100.475 108.515 99.8708L108.389 98.0569C108.352 97.4479 108.328 96.8363 108.305 96.2351C108.273 95.0145 108.258 93.8018 108.289 92.5811C108.305 91.9721 108.328 91.3631 108.36 90.7594C108.389 90.1504 108.428 89.5466 108.483 88.9376C108.601 87.717 108.811 86.4885 109.266 85.3335C109.502 84.7613 109.798 84.2048 110.19 83.7218C110.581 83.2361 111.066 82.8371 111.604 82.5563Z" fill="#574539"/>
<path id="Vector_53" d="M126.024 41.622C125.226 43.0684 124.147 44.3599 122.934 45.486C122.33 46.0556 121.682 46.5806 121.018 47.0715C120.343 47.565 119.648 48.0191 118.944 48.4496C117.519 49.3028 116.025 50.0141 114.5 50.6468C112.975 51.2794 111.426 51.8359 109.854 52.3136C111.308 51.5471 112.794 50.841 114.258 50.1218C115.721 49.3946 117.167 48.6439 118.561 47.8144C119.264 47.4101 119.944 46.9718 120.611 46.5098C121.283 46.0556 121.923 45.5621 122.559 45.0555C123.811 44.0291 124.976 42.8873 126.024 41.622Z" fill="#574539"/>
<path id="Vector_54" d="M121.425 37.0624C120.994 37.0387 120.587 37.1254 120.22 37.296C119.852 37.4535 119.506 37.6792 119.17 37.9155C118.834 38.1491 118.506 38.4142 118.17 38.6662L117.151 39.4249C116.471 39.9236 115.791 40.4171 115.096 40.9027C114.398 41.3779 113.694 41.8556 112.951 42.294C113.5 41.6299 114.101 41.0182 114.734 40.4486C115.369 39.8764 116.033 39.3382 116.721 38.829C117.067 38.5796 117.419 38.3276 117.771 38.094C117.949 37.9759 118.13 37.8604 118.309 37.7501C118.49 37.632 118.676 37.5244 118.873 37.422C119.264 37.2172 119.679 37.0387 120.117 36.9521C120.556 36.8576 121.026 36.8812 121.425 37.0624Z" fill="#574539"/>
<path id="Vector_55" d="M136.038 40.6429C134.363 43.0684 132.526 45.3758 130.562 47.5808C130.069 48.1294 129.567 48.6754 129.066 49.2161L127.525 50.8043C127 51.3188 126.47 51.8359 125.945 52.3504L124.325 53.8598L122.658 55.3166L120.963 56.7315L119.225 58.0991C118.639 58.5454 118.044 58.9838 117.45 59.4221C115.056 61.1494 112.576 62.7454 109.985 64.1524C112.41 62.4803 114.789 60.7583 117.096 58.9601C117.668 58.4981 118.24 58.044 118.818 57.5925L120.516 56.1908L122.191 54.768L123.832 53.3059L125.451 51.8201C125.984 51.3109 126.509 50.8043 127.039 50.3029L128.604 48.762C129.113 48.237 129.63 47.7146 130.14 47.1896C132.171 45.0713 134.13 42.8794 136.038 40.6429Z" fill="#574539"/>
<path id="Vector_56" d="M97.0147 81.4616C96.0461 84.0026 95.0355 86.5357 94.3084 89.1319C94.2217 89.4626 94.1272 89.7829 94.0511 90.111L93.8227 91.0954L93.6364 92.0824C93.5812 92.4105 93.5419 92.7465 93.4867 93.0746C93.3135 94.4055 93.261 95.7416 93.3844 97.0646L93.4237 97.5555C93.4474 97.7209 93.471 97.8836 93.4946 98.049C93.5497 98.3771 93.5891 98.7052 93.6679 99.0255C93.807 99.6765 93.996 100.317 94.1981 100.965C94.395 101.608 94.6129 102.249 94.8334 102.897C95.0512 103.546 95.256 104.197 95.4266 104.861C95.5999 105.525 95.7547 106.205 95.8414 106.895C95.928 107.583 95.9595 108.279 95.9122 108.966C95.8571 109.654 95.739 110.344 95.5054 111.001C95.4739 111.079 95.4502 111.163 95.4187 111.242L95.3164 111.478C95.256 111.633 95.1694 111.791 95.0906 111.938C95.0512 112.017 95.004 112.087 94.9567 112.158L94.8176 112.376C94.7231 112.518 94.6129 112.649 94.5105 112.783C95.256 111.633 95.5526 110.281 95.5526 108.951C95.5526 108.286 95.4817 107.614 95.3636 106.956C95.2481 106.299 95.0827 105.651 94.8806 105.01C94.4737 103.727 93.9802 102.467 93.5419 101.162C93.3214 100.511 93.1271 99.8471 92.9696 99.1672C92.8935 98.8312 92.8384 98.4874 92.7832 98.1435C92.7596 97.9702 92.7202 97.7996 92.7045 97.6264L92.6572 97.1092C92.5391 95.7259 92.6021 94.3267 92.8069 92.9565C93.0169 91.5889 93.3371 90.2527 93.7755 88.9455C94.605 86.3572 95.7626 83.8766 97.0147 81.4616Z" fill="#574539"/>
<path id="Vector_57" d="M103.063 96.6971C102.905 97.8994 102.798 99.0885 102.727 100.278C102.648 101.475 102.593 102.672 102.49 103.877C102.391 105.079 102.233 106.292 101.96 107.481L101.85 107.927C101.811 108.077 101.771 108.224 101.724 108.365C101.637 108.662 101.538 108.951 101.412 109.232C101.286 109.515 101.146 109.796 100.973 110.045C100.803 110.305 100.598 110.539 100.372 110.736C100.708 110.226 100.926 109.678 101.068 109.108C101.146 108.827 101.202 108.536 101.246 108.239C101.301 107.951 101.333 107.654 101.388 107.355C101.553 106.176 101.653 104.995 101.755 103.798C101.858 102.601 101.968 101.396 102.154 100.199C102.336 99.0176 102.609 97.8233 103.063 96.6971Z" fill="#574539"/>
<path id="Vector_58" d="M100.238 115.631C100.364 116.007 100.372 116.398 100.333 116.781C100.285 117.164 100.175 117.54 100.02 117.883C99.855 118.235 99.6424 118.555 99.3851 118.836C99.12 119.117 98.8155 119.361 98.448 119.508C98.595 119.141 98.7525 118.821 98.9074 118.508C99.0649 118.196 99.2066 117.883 99.3536 117.568C99.4954 117.256 99.6371 116.944 99.7762 116.623C99.9101 116.311 100.049 115.983 100.238 115.631Z" fill="#574539"/>
<path id="Vector_59" d="M112.066 112.597C112.137 113.174 112.169 113.731 112.216 114.277C112.263 114.825 112.311 115.371 112.371 115.912C112.434 116.45 112.505 116.999 112.584 117.547C112.662 118.093 112.746 118.642 112.801 119.22C112.458 118.75 112.208 118.227 112.011 117.679C111.825 117.133 111.699 116.568 111.636 115.991C111.573 115.419 111.573 114.833 111.636 114.261C111.699 113.699 111.833 113.127 112.066 112.597Z" fill="#574539"/>
<path id="Vector_60" d="M103.288 60.3199C103.078 60.9158 102.782 61.4539 102.435 61.971C102.091 62.4881 101.7 62.9633 101.27 63.4095C100.839 63.8558 100.372 64.2626 99.8707 64.6223C99.3693 64.9819 98.8312 65.3021 98.2432 65.5305C98.65 65.0528 99.0727 64.6223 99.4874 64.1839L100.74 62.895L101.984 61.6035C102.406 61.1809 102.819 60.7425 103.288 60.3199Z" fill="#574539"/>
<path id="Vector_61" d="M134.237 64.7167C132.518 66.3285 130.749 67.8851 128.966 69.4155C128.074 70.1899 127.173 70.9406 126.273 71.6992C125.827 72.0825 125.375 72.45 124.913 72.8254C124.451 73.2007 123.981 73.5787 123.464 73.9069C122.95 74.235 122.378 74.5159 121.761 74.6734C121.149 74.8361 120.516 74.8755 119.905 74.8519C119.296 74.8282 118.692 74.7337 118.107 74.6261C117.519 74.5159 116.949 74.3899 116.369 74.2586C114.062 73.7336 111.793 73.0537 109.594 72.2006C111.888 72.765 114.18 73.2716 116.487 73.6942C117.645 73.8832 118.802 74.1326 119.928 74.1562C120.493 74.1641 121.049 74.1247 121.572 73.9751C122.097 73.836 122.598 73.5919 123.073 73.2874C123.551 72.9907 124.005 72.639 124.459 72.2715C124.913 71.904 125.367 71.5286 125.827 71.1611C126.751 70.434 127.667 69.6911 128.596 68.9719C130.452 67.515 132.321 66.0844 134.237 64.7167Z" fill="#574539"/>
<path id="Vector_62" d="M126.995 74.9149C124.953 75.7444 122.808 76.314 120.619 76.6658C120.07 76.7445 119.521 76.8233 118.975 76.8863L117.316 77.0254C116.76 77.049 116.206 77.0569 115.657 77.0805L113.998 77.0569C111.786 76.965 109.578 76.65 107.428 76.1119C105.283 75.579 103.189 74.8282 101.225 73.8281C103.304 74.5474 105.409 75.1249 107.554 75.5475C109.688 75.9701 111.856 76.2221 114.03 76.314L115.657 76.3534C116.198 76.3455 116.744 76.3298 117.285 76.3298L118.912 76.2431C119.453 76.1906 119.991 76.1434 120.54 76.0961C122.706 75.8546 124.858 75.4478 126.995 74.9149Z" fill="#574539"/>
<path id="Vector_63" d="M128.457 63.4489C126.648 64.4201 124.819 65.3179 122.958 66.1946C122.026 66.633 121.062 67.0241 120.046 67.305C119.031 67.5859 117.988 67.7197 116.949 67.7906C114.867 67.8982 112.833 67.7512 110.783 67.6567C108.743 67.5465 106.701 67.4074 104.659 67.1947C106.709 67.1029 108.751 67.0792 110.799 67.0792C111.825 67.0714 112.841 67.095 113.867 67.1029C114.883 67.1107 115.899 67.1107 116.902 67.0556C117.902 67.0084 118.897 66.8745 119.865 66.633C120.837 66.3967 121.776 66.0371 122.721 65.6617C124.622 64.8952 126.525 64.1366 128.457 63.4489Z" fill="#574539"/>
<path id="Vector_64" d="M109.297 47.1424C108.867 47.7986 108.36 48.3945 107.811 48.9405C107.263 49.4891 106.669 49.9984 106.042 50.4656C105.417 50.9276 104.761 51.3503 104.071 51.7099C103.383 52.0695 102.664 52.3819 101.913 52.6024C102.522 52.1089 103.149 51.6705 103.766 51.2164L105.612 49.8724C106.223 49.4183 106.832 48.9641 107.444 48.5126C108.037 48.0506 108.649 47.5886 109.297 47.1424Z" fill="#574539"/>
<path id="Vector_65" d="M144.785 39.3934C143.711 38.682 142.64 37.9995 141.53 37.3905C140.427 36.7815 139.285 36.2329 138.125 35.7473C136.959 35.2721 135.77 34.8495 134.558 34.5056C133.345 34.1513 132.111 33.8704 130.843 33.621C132.127 33.5659 133.424 33.6919 134.691 33.9413C135.959 34.1906 137.211 34.5739 138.408 35.0674C139.605 35.5609 140.755 36.1778 141.834 36.897C142.905 37.6163 143.908 38.4458 144.785 39.3934Z" fill="#574539"/>
<path id="Vector_66" d="M133.862 37.8604C133.032 38.0231 132.219 38.157 131.405 38.3066C130.591 38.4536 129.793 38.6032 128.987 38.766C128.184 38.9314 127.386 39.1099 126.588 39.2989C125.782 39.4852 124.984 39.69 124.155 39.8606C124.866 39.4012 125.625 39.0495 126.415 38.7424C127.205 38.4457 128.011 38.2121 128.84 38.0389C129.662 37.8682 130.499 37.758 131.344 37.7186C132.187 37.695 133.032 37.7186 133.862 37.8604Z" fill="#574539"/>
<path id="Vector_67" d="M154.875 48.3C154.954 48.7541 154.962 49.2004 154.954 49.6466C154.938 50.0824 154.891 50.5207 154.82 50.9512C154.749 51.3817 154.657 51.8122 154.531 52.2349C154.405 52.6575 154.258 53.0801 154.03 53.4844C153.954 53.0329 153.938 52.5866 153.954 52.1404C153.967 51.702 154.014 51.2636 154.085 50.8331C154.156 50.4052 154.25 49.9747 154.374 49.5521C154.508 49.1295 154.657 48.7147 154.875 48.3Z" fill="#574539"/>
<path id="Vector_68" d="M104.722 45.7353C104.706 48.6517 102.727 51.1481 100.839 53.3846L100.622 53.3531C100.097 54.0172 99.6503 54.7286 99.267 55.4715C98.4244 57.1147 97.86 58.9286 97.3114 60.7031C94.7153 69.2527 92.2898 77.9493 90.4602 86.7247C87.7144 99.8629 86.2812 113.182 87.549 126.509C83.9108 123.748 80.6243 120.385 78.6529 116.272C77.9652 114.849 77.4428 113.34 77.1199 111.791C76.6448 109.523 76.6054 107.2 76.65 104.884C76.7682 99.3326 77.4349 93.7938 78.6162 88.3653C79.2882 85.2705 80.1413 82.2045 81.1493 79.1936C82.1914 76.1119 83.3937 73.0852 84.7797 70.1452C83.3412 70.7385 81.8685 69.5808 80.8369 68.3523C80.7582 68.2605 80.6715 68.1581 80.6033 68.0636C78.7868 65.7405 77.1987 63.2388 75.8678 60.6033C75.7602 60.3907 75.6578 60.165 75.6814 59.9366C75.7287 59.5324 76.1355 59.2882 76.4715 59.0625C76.65 58.9365 76.8154 58.8026 76.9729 58.6556C77.0727 58.5611 77.175 58.4587 77.2695 58.3511C77.7473 57.834 78.1384 57.2329 78.5295 56.6291C78.7002 56.364 78.8734 56.1067 79.0519 55.8468C80.4773 53.8387 82.5038 52.2742 84.7797 51.3423C86.1709 50.7727 87.6593 50.442 89.1608 50.3895C89.817 50.3658 90.4759 50.3895 91.1322 50.3895C91.2267 50.3895 91.3185 50.3895 91.413 50.3895C91.602 50.3895 91.7884 50.3816 91.9774 50.3658C92.4315 50.3422 92.8699 50.2871 93.3135 50.1768C92.6415 49.5521 92.4867 48.5651 92.7045 47.6516C92.7912 47.292 92.9382 46.9402 93.1272 46.6278C93.807 45.5385 94.941 44.8271 96.0304 44.1472C97.251 43.3965 98.7683 42.6536 100.128 42.63C100.887 42.6142 101.593 42.819 102.178 43.3492C102.123 42.63 102.467 41.895 103.063 41.4802C104.134 42.6221 104.73 44.1787 104.722 45.7353Z" fill="#8A8476"/>
<path id="Vector_69" d="M91.1479 50.3816C91.1479 50.4053 91.14 50.4289 91.1322 50.4499C90.9222 51.4526 90.4444 52.4055 89.7015 53.109C88.956 53.8151 87.9323 54.2378 86.9085 54.1748C86.4702 54.1511 86.016 54.0251 85.6722 53.7521C84.9897 53.2193 84.8269 52.2743 84.7954 51.4133C84.7954 51.3818 84.7954 51.3503 84.7954 51.3266C86.1867 50.757 87.675 50.4289 89.1765 50.3738C89.8249 50.358 90.4917 50.3816 91.1479 50.3816Z" fill="#6C6863"/>
<path id="Vector_70" d="M100.049 47.1503C99.5899 47.5965 98.9704 47.8301 98.3614 48.027C96.7418 48.5573 94.8938 48.888 93.3844 48.0979C93.1429 47.9719 92.9145 47.8144 92.7124 47.6438C92.799 47.2841 92.9382 46.9324 93.135 46.62C93.8149 45.5306 94.9489 44.8193 96.0383 44.1394C97.2589 43.3886 98.7762 42.6458 100.136 42.6221C100.372 43.0369 100.574 43.4753 100.708 43.9373C101.028 45.0476 100.879 46.3523 100.049 47.1503Z" fill="#9D9788"/>
<path id="Vector_71" d="M99.275 55.4715C98.4323 57.1147 97.868 58.9286 97.3193 60.7031C94.7232 69.2527 92.2977 77.9494 90.4681 86.7247C88.9561 88.5544 87.0477 90.0559 84.7797 90.6491C83.84 90.9011 82.8477 90.9877 81.8922 90.783C80.5246 90.4942 79.3118 89.5702 78.6162 88.3601C79.2882 85.2547 80.1413 82.1966 81.1493 79.1857C82.3385 80.2095 84.0447 80.7109 85.6565 80.703C86.5568 80.6951 87.4861 80.5612 88.2605 80.0992C89.3472 79.4587 89.9982 78.2696 90.5075 77.112C91.5942 74.6655 92.3135 72.0536 92.6573 69.3945C92.8542 67.8379 92.9225 66.2655 93.017 64.701C93.3057 60.1729 93.9095 55.6762 94.5027 51.1796C94.5657 50.694 94.6838 50.1375 95.1222 49.9354C95.3873 51.0457 94.7783 52.3294 95.3795 53.298C95.5921 53.634 95.9202 53.8834 96.2562 54.096C97.1881 54.6971 98.2118 55.1591 99.275 55.4715Z" fill="#9D9788"/>
<path id="Vector_72" d="M89.6149 62.0182C87.6199 66.8193 85.6722 71.6388 83.7638 76.4715C83.6535 76.7523 83.5354 77.0568 83.5984 77.3561C83.6614 77.6448 83.8714 77.8785 84.1234 78.036C84.6537 78.372 85.3519 78.3956 85.953 78.2223C86.562 78.0438 87.0949 77.6842 87.5884 77.2852C89.019 76.1276 90.1767 74.6261 90.9143 72.9356C91.7175 71.0981 92.0325 69.0716 92.1717 67.0713C92.3607 64.4122 92.2583 61.6743 91.2345 59.2095C90.4759 59.9445 89.9903 60.9551 89.8958 62.0103L89.6149 62.0182Z" fill="#7A776F"/>
<path id="Vector_73" d="M92.001 52.8753C91.4681 53.7836 91.0061 54.7365 90.6228 55.7156C90.3026 56.5425 90.0375 57.3877 89.6857 58.2015C88.9271 59.9523 87.7668 61.509 86.541 62.9632C85.68 63.9817 84.7166 64.9976 83.4723 65.4754C82.2281 65.9531 80.6111 65.7326 79.8498 64.6301C79.5768 64.2311 79.4272 63.7612 79.3196 63.2861C79.044 62.1364 78.9127 60.9472 78.9442 59.766C78.9521 59.3512 78.9521 58.8735 78.6371 58.6083C78.5216 58.5139 78.3798 58.4508 78.2328 58.4115C77.9178 58.3275 77.5976 58.3038 77.2852 58.3353C77.1828 58.443 77.0805 58.5454 76.9807 58.6398C76.9807 58.632 76.9807 58.632 76.9807 58.6241C77.0805 58.5296 77.1828 58.4272 77.2773 58.3196C77.7551 57.8025 78.1462 57.2013 78.5373 56.5976C79.3826 57.0596 79.7343 58.2408 79.9443 59.2488C80.1885 60.4065 80.6872 61.7925 81.8606 61.9631C82.5825 62.0733 83.2702 61.635 83.8477 61.1966C87.423 58.4981 90.1162 54.6498 91.4287 50.3658C91.6177 50.3658 91.8041 50.358 91.9931 50.3422C92.1165 51.2032 92.1112 52.038 92.001 52.8753Z" fill="#7C7A75"/>
</g>
</g>
</svg>
