<svg width="29" height="30" viewBox="0 0 29 30" fill="none" xmlns="http://www.w3.org/2000/svg">
<path d="M18.5115 15.2647L18.0651 14.5278C17.7762 14.7046 17.6176 15.0354 17.66 15.3727C17.7022 15.7099 17.9376 15.9908 18.2612 16.09L18.5115 15.2647ZM10.4884 15.2647L10.7388 16.09C11.0623 15.9908 11.2977 15.7099 11.3401 15.3727C11.3824 15.0354 11.2237 14.7046 10.9348 14.5278L10.4884 15.2647ZM21.3675 8.62745C21.3675 11.1259 20.0471 13.3153 18.0651 14.5278L18.9579 16.0017C21.4302 14.4891 23.0844 11.7528 23.0844 8.62745H21.3675ZM14.5001 1.72549C18.2928 1.72549 21.3675 4.8156 21.3675 8.62745H23.0844C23.0844 3.86265 19.241 0 14.5001 0V1.72549ZM7.63249 8.62745C7.63249 4.8156 10.7072 1.72549 14.5001 1.72549V0C9.75897 0 5.91561 3.86265 5.91561 8.62745H7.63249ZM10.9348 14.5278C8.9529 13.3153 7.63249 11.126 7.63249 8.62745H5.91561C5.91561 11.7528 7.56975 14.4891 10.0421 16.0017L10.9348 14.5278ZM10.238 14.4394C4.81831 16.1004 0.736832 20.8446 0.018972 26.6419L1.72269 26.855C2.35554 21.7443 5.95656 17.5555 10.7388 16.09L10.238 14.4394ZM0.018972 26.6419C-0.17076 28.1741 1.09221 29.3333 2.48186 29.3333V27.6078C1.97513 27.6078 1.67823 27.2142 1.72269 26.855L0.018972 26.6419ZM2.48186 29.3333H26.5182V27.6078H2.48186V29.3333ZM26.5182 29.3333C27.9078 29.3333 29.1707 28.1741 28.981 26.6419L27.2772 26.855C27.3217 27.2142 27.0248 27.6078 26.5182 27.6078V29.3333ZM28.981 26.6419C28.2632 20.8446 24.1817 16.1004 18.7619 14.4394L18.2612 16.09C23.0434 17.5555 26.6444 21.7443 27.2772 26.855L28.981 26.6419Z" fill="#FF997A"/>
</svg>
