<svg width="15" height="15" viewBox="0 0 15 15" fill="none" xmlns="http://www.w3.org/2000/svg">
<g id="Group 118">
<path id="Vector" d="M10.1 5.54339V12.9274C10.1 13.8699 9.424 14.2664 8.5985 13.8114L6.04401 12.3879C5.77101 12.2384 5.32899 12.2384 5.05599 12.3879L2.5015 13.8114C1.676 14.2664 1 13.8699 1 12.9274V5.54339C1 4.4319 1.90999 3.52191 3.02149 3.52191H8.0785C9.19 3.52191 10.1 4.4319 10.1 5.54339Z" stroke="#283E50" stroke-linecap="round" stroke-linejoin="round"/>
<path id="Vector_2" d="M14 3.02148V10.4054C14 11.3479 13.324 11.7444 12.4985 11.2894L10.1 9.95045V5.54347C10.1 4.43197 9.19002 3.52199 8.07852 3.52199H4.90002V3.02148C4.90002 1.90999 5.81002 1 6.92152 1H11.9785C13.09 1 14 1.90999 14 3.02148Z" stroke="#283E50" stroke-linecap="round" stroke-linejoin="round"/>
<path id="Vector_3" d="M4.25 7.49994H6.85" stroke="#283E50" stroke-linecap="round" stroke-linejoin="round"/>
<path id="Vector_4" d="M5.55005 8.79994V6.19995" stroke="#283E50" stroke-linecap="round" stroke-linejoin="round"/>
</g>
</svg>
