<svg width="11" height="7" viewBox="0 0 11 7" fill="none" xmlns="http://www.w3.org/2000/svg">
<path id="Vector" d="M0.804779 3.05374C0.620676 2.84177 0.322179 2.84177 0.138077 3.05374C-0.0460256 3.2657 -0.0460256 3.60931 0.138077 3.82128L0.804779 3.05374ZM2.98572 6.33225L2.65237 6.71602C2.83647 6.92799 3.13497 6.92799 3.31907 6.71602L2.98572 6.33225ZM8.34763 0.926555C8.53174 0.714595 8.53174 0.370931 8.34763 0.15897C8.16352 -0.0529901 7.86507 -0.0529901 7.68096 0.15897L8.34763 0.926555ZM3.31907 3.05374C3.13497 2.84177 2.83647 2.84177 2.65237 3.05374C2.46826 3.2657 2.46826 3.60931 2.65237 3.82128L3.31907 3.05374ZM5.50001 6.33225L5.16667 6.71602C5.35078 6.92799 5.64923 6.92799 5.83334 6.71602L5.50001 6.33225ZM10.8619 0.926555C11.046 0.714595 11.046 0.370931 10.8619 0.15897C10.6778 -0.0529901 10.3794 -0.0529901 10.1953 0.15897L10.8619 0.926555ZM0.138077 3.82128L2.65237 6.71602L3.31907 5.94848L0.804779 3.05374L0.138077 3.82128ZM3.31907 6.71602L8.34763 0.926555L7.68096 0.15897L2.65237 5.94848L3.31907 6.71602ZM2.65237 3.82128L5.16667 6.71602L5.83334 5.94848L3.31907 3.05374L2.65237 3.82128ZM5.83334 6.71602L10.8619 0.926555L10.1953 0.15897L5.16667 5.94848L5.83334 6.71602Z" fill="#283E50"/>
</svg>
